<svg xmlns="http://www.w3.org/2000/svg" viewBox="0 0 1600 560" width="1600" height="560" role="img" aria-labelledby="t">
<title id="t">Armando Custodio, Design Engineer. Designer de produtos, experiências, aplicativos, interfaces, sistemas, músicas, sonhos, embalagens e sites.</title>
<style>
.roleta{animation:roleta 22.05s cubic-bezier(.77,0,.18,1) infinite}
@keyframes roleta{0.000%{transform:translateY(0px)}9.070%{transform:translateY(0px)}11.111%{transform:translateY(-84px)}20.181%{transform:translateY(-84px)}22.222%{transform:translateY(-168px)}31.293%{transform:translateY(-168px)}33.333%{transform:translateY(-252px)}42.404%{transform:translateY(-252px)}44.444%{transform:translateY(-336px)}53.515%{transform:translateY(-336px)}55.556%{transform:translateY(-420px)}64.626%{transform:translateY(-420px)}66.667%{transform:translateY(-504px)}75.737%{transform:translateY(-504px)}77.778%{transform:translateY(-588px)}86.848%{transform:translateY(-588px)}88.889%{transform:translateY(-672px)}97.959%{transform:translateY(-672px)}100.000%{transform:translateY(-756px)}}
@media (prefers-reduced-motion:reduce){.roleta{animation:none}}
</style>
<defs><clipPath id="linha"><rect x="0" y="356" width="1600" height="84"/></clipPath></defs>
<rect width="1600" height="560" fill="#ffffff"/>
<g fill="#6d6d6d"><path d="M66.1 76.6H70.4Q73.2 76.6 74.6 78.6Q76 80.5 76 84.3Q76 88.1 74.6 90.1Q73.2 92 70.4 92H66.1ZM70.3 90.4Q72.1 90.4 73.1 89.1Q74 87.8 74 85.5V83.1Q74 80.8 73.1 79.5Q72.1 78.2 70.3 78.2H67.9V90.4ZM79.2 92V76.6H88.6V78.2H81V83.4H88.4V85H81V90.4H88.6V92ZM97 92.3Q94.9 92.3 93.6 91.5Q92.2 90.7 91.4 89.6L92.7 88.5Q93.6 89.6 94.6 90.1Q95.6 90.7 97 90.7Q98.7 90.7 99.6 89.9Q100.5 89.1 100.5 87.8Q100.5 86.6 99.8 86Q99.2 85.4 97.6 85.1L95.9 84.8Q94.8 84.6 94 84.2Q93.2 83.8 92.8 83.3Q92.3 82.7 92.1 82Q91.9 81.4 91.9 80.6Q91.9 78.5 93.3 77.5Q94.7 76.4 97 76.4Q98.9 76.4 100.2 77Q101.4 77.6 102.2 78.7L100.9 79.9Q100.3 79 99.4 78.5Q98.5 78 97 78Q95.5 78 94.6 78.6Q93.8 79.3 93.8 80.6Q93.8 81.6 94.4 82.3Q95 82.9 96.7 83.2L98.3 83.5Q99.4 83.7 100.2 84.1Q101 84.5 101.5 85Q101.9 85.6 102.1 86.3Q102.3 87 102.3 87.7Q102.3 89.8 100.9 91.1Q99.5 92.3 97 92.3ZM105.4 92V90.5H109.3V78.1H105.4V76.6H115V78.1H111.1V90.5H115V92ZM126.6 90H126.5Q126.3 90.4 126 90.8Q125.7 91.2 125.3 91.5Q124.9 91.9 124.3 92.1Q123.8 92.3 123 92.3Q120.5 92.3 119.3 90.2Q118 88.2 118 84.4Q118 80.5 119.4 78.4Q120.7 76.4 123.5 76.4Q124.6 76.4 125.4 76.7Q126.2 77 126.7 77.4Q127.3 77.9 127.7 78.5Q128 79.1 128.3 79.7L126.7 80.5Q126.5 80 126.2 79.5Q126 79.1 125.6 78.7Q125.3 78.4 124.8 78.2Q124.3 78 123.6 78Q121.7 78 120.9 79.4Q120 80.8 120 83.1V85.4Q120 86.6 120.2 87.6Q120.3 88.5 120.7 89.2Q121.2 89.9 121.8 90.3Q122.5 90.7 123.4 90.7Q124.9 90.7 125.7 89.8Q126.6 88.9 126.6 87.5V85.9H123.3V84.4H128.3V92H126.6ZM133.6 79.1H133.4V92H131.8V76.6H134.4L139.6 89.6H139.8V76.6H141.4V92H138.8ZM158.4 92V76.6H167.8V78.2H160.2V83.4H167.6V85H160.2V90.4H167.8V92ZM173.2 79.1H173V92H171.4V76.6H174L179.2 89.6H179.4V76.6H181V92H178.4ZM192.6 90H192.5Q192.3 90.4 192 90.8Q191.7 91.2 191.3 91.5Q190.9 91.9 190.3 92.1Q189.8 92.3 189 92.3Q186.5 92.3 185.3 90.2Q184 88.2 184 84.4Q184 80.5 185.4 78.4Q186.7 76.4 189.5 76.4Q190.6 76.4 191.4 76.7Q192.2 77 192.7 77.4Q193.3 77.9 193.7 78.5Q194 79.1 194.3 79.7L192.7 80.5Q192.5 80 192.2 79.5Q192 79.1 191.6 78.7Q191.3 78.4 190.8 78.2Q190.3 78 189.6 78Q187.7 78 186.9 79.4Q186 80.8 186 83.1V85.4Q186 86.6 186.2 87.6Q186.3 88.5 186.7 89.2Q187.2 89.9 187.8 90.3Q188.5 90.7 189.4 90.7Q190.9 90.7 191.7 89.8Q192.6 88.9 192.6 87.5V85.9H189.3V84.4H194.3V92H192.6ZM197.8 92V90.5H201.7V78.1H197.8V76.6H207.4V78.1H203.5V90.5H207.4V92ZM212.8 79.1H212.6V92H211V76.6H213.6L218.8 89.6H219V76.6H220.6V92H218ZM224.4 92V76.6H233.8V78.2H226.2V83.4H233.6V85H226.2V90.4H233.8V92ZM237.6 92V76.6H247V78.2H239.4V83.4H246.8V85H239.4V90.4H247V92ZM252.6 92H250.8V76.6H256.4Q258.5 76.6 259.6 77.8Q260.7 79 260.7 81.1Q260.7 82.9 259.8 84.1Q258.8 85.2 257 85.4L260.9 92H258.8L255.1 85.4H252.6ZM256.3 83.9Q257.5 83.9 258.1 83.3Q258.8 82.7 258.8 81.6V80.5Q258.8 79.4 258.1 78.8Q257.5 78.2 256.3 78.2H252.6V83.9Z"/><path d="M1347.8 90H1347.7Q1347.5 90.4 1347.2 90.8Q1346.9 91.2 1346.5 91.5Q1346.1 91.9 1345.5 92.1Q1345 92.3 1344.2 92.3Q1341.7 92.3 1340.5 90.2Q1339.2 88.2 1339.2 84.4Q1339.2 80.5 1340.6 78.4Q1341.9 76.4 1344.7 76.4Q1345.8 76.4 1346.6 76.7Q1347.4 77 1347.9 77.4Q1348.5 77.9 1348.9 78.5Q1349.2 79.1 1349.5 79.7L1347.9 80.5Q1347.7 80 1347.4 79.5Q1347.2 79.1 1346.8 78.7Q1346.5 78.4 1346 78.2Q1345.5 78 1344.8 78Q1342.9 78 1342.1 79.4Q1341.2 80.8 1341.2 83.1V85.4Q1341.2 86.6 1341.4 87.6Q1341.5 88.5 1341.9 89.2Q1342.4 89.9 1343 90.3Q1343.7 90.7 1344.6 90.7Q1346.1 90.7 1346.9 89.8Q1347.8 88.9 1347.8 87.5V85.9H1344.5V84.4H1349.5V92H1347.8ZM1357.8 92.3Q1356.4 92.3 1355.4 91.7Q1354.4 91.2 1353.7 90.2Q1353 89.2 1352.7 87.7Q1352.4 86.2 1352.4 84.3Q1352.4 82.5 1352.7 81Q1353 79.5 1353.7 78.5Q1354.4 77.5 1355.4 76.9Q1356.4 76.4 1357.8 76.4Q1359.2 76.4 1360.2 76.9Q1361.2 77.5 1361.9 78.5Q1362.6 79.5 1362.9 81Q1363.2 82.5 1363.2 84.3Q1363.2 86.2 1362.9 87.7Q1362.6 89.2 1361.9 90.2Q1361.2 91.2 1360.2 91.7Q1359.2 92.3 1357.8 92.3ZM1357.8 90.7Q1358.7 90.7 1359.4 90.3Q1360 89.9 1360.4 89.3Q1360.8 88.6 1361 87.7Q1361.2 86.7 1361.2 85.6V83.1Q1361.2 81.9 1361 81Q1360.8 80 1360.4 79.4Q1360 78.7 1359.4 78.3Q1358.7 78 1357.8 78Q1356.9 78 1356.2 78.3Q1355.6 78.7 1355.2 79.4Q1354.8 80 1354.6 81Q1354.4 81.9 1354.4 83.1V85.6Q1354.4 86.7 1354.6 87.7Q1354.8 88.6 1355.2 89.3Q1355.6 89.9 1356.2 90.3Q1356.9 90.7 1357.8 90.7ZM1366.2 92V90.5H1370.1V78.1H1366.2V76.6H1375.8V78.1H1371.9V90.5H1375.8V92ZM1388.2 92 1386.9 87.6H1381.5L1380.2 92H1378.3L1383 76.6H1385.4L1390.1 92ZM1384.3 78.6H1384.1L1381.9 86H1386.4ZM1385.3 71.4 1387.7 74.6 1386.8 75.3 1384.2 72.7 1381.6 75.3 1380.7 74.6 1383.1 71.4ZM1394.4 79.1H1394.2V92H1392.6V76.6H1395.2L1400.4 89.6H1400.6V76.6H1402.2V92H1399.6ZM1405.8 92V90.5H1409.7V78.1H1405.8V76.6H1415.4V78.1H1411.5V90.5H1415.4V92ZM1427.8 92 1426.5 87.6H1421.1L1419.8 92H1417.9L1422.6 76.6H1425L1429.7 92ZM1423.9 78.6H1423.7L1421.5 86H1426ZM1436.1 89H1438.9L1436.4 95.1H1434.9ZM1458.7 76.6H1464Q1465.9 76.6 1467.1 77.7Q1468.2 78.8 1468.2 80.6Q1468.2 82 1467.5 82.8Q1466.8 83.6 1465.8 83.9V84Q1467.1 84.3 1467.9 85.1Q1468.7 86 1468.7 87.6Q1468.7 88.5 1468.4 89.3Q1468.1 90.1 1467.6 90.7Q1467 91.3 1466.2 91.7Q1465.5 92 1464.6 92H1458.7ZM1464.1 90.4Q1465.3 90.4 1466.1 89.8Q1466.8 89.2 1466.8 88.1V87.2Q1466.8 86 1466.1 85.4Q1465.3 84.8 1464.1 84.8H1460.6V90.4ZM1463.8 83.3Q1464.9 83.3 1465.6 82.8Q1466.2 82.3 1466.2 81.2V80.4Q1466.2 79.3 1465.6 78.8Q1464.9 78.2 1463.8 78.2H1460.6V83.3ZM1473.8 92H1472V76.6H1477.6Q1479.7 76.6 1480.8 77.8Q1481.9 79 1481.9 81.1Q1481.9 82.9 1481 84.1Q1480 85.2 1478.2 85.4L1482.1 92H1480L1476.3 85.4H1473.8ZM1477.5 83.9Q1478.7 83.9 1479.3 83.3Q1480 82.7 1480 81.6V80.5Q1480 79.4 1479.3 78.8Q1478.7 78.2 1477.5 78.2H1473.8V83.9ZM1493.8 92 1492.5 87.6H1487.1L1485.8 92H1483.9L1488.6 76.6H1491L1495.7 92ZM1489.9 78.6H1489.7L1487.5 86H1492ZM1503 92.3Q1500.9 92.3 1499.6 91.5Q1498.2 90.7 1497.4 89.6L1498.7 88.5Q1499.6 89.6 1500.6 90.1Q1501.6 90.7 1503 90.7Q1504.7 90.7 1505.6 89.9Q1506.5 89.1 1506.5 87.8Q1506.5 86.6 1505.8 86Q1505.2 85.4 1503.6 85.1L1501.9 84.8Q1500.8 84.6 1500 84.2Q1499.2 83.8 1498.8 83.3Q1498.3 82.7 1498.1 82Q1497.9 81.4 1497.9 80.6Q1497.9 78.5 1499.3 77.5Q1500.7 76.4 1503 76.4Q1504.9 76.4 1506.2 77Q1507.4 77.6 1508.2 78.7L1506.9 79.9Q1506.3 79 1505.4 78.5Q1504.5 78 1503 78Q1501.5 78 1500.6 78.6Q1499.8 79.3 1499.8 80.6Q1499.8 81.6 1500.4 82.3Q1501 82.9 1502.7 83.2L1504.3 83.5Q1505.4 83.7 1506.2 84.1Q1507 84.5 1507.5 85Q1507.9 85.6 1508.1 86.3Q1508.3 87 1508.3 87.7Q1508.3 89.8 1506.9 91.1Q1505.5 92.3 1503 92.3ZM1511.4 92V90.5H1515.3V78.1H1511.4V76.6H1521V78.1H1517.1V90.5H1521V92ZM1525.4 92V76.6H1527.3V90.4H1534.6V92Z"/></g>
<path fill="#0b0b0b" d="M147.6 300 141.5 280.2H103.9L97.7 300H63.5L100.7 191.7H147L184.4 300ZM111.7 255.1H134.3L131.5 245.8Q128.7 236.2 128.7 220Q128.7 215.8 129 208.1H117.9Q118 211.5 118 215.8Q118 233.9 114.5 245.8ZM191.2 300V222.2H219.4Q219.4 235.9 213.4 247.2H225.1Q227.1 233.3 232.6 226.6Q238.1 220 248 220Q252.4 220 255.4 220.6V250.2Q249.6 249.1 244.3 249.1Q233.3 249.1 228.4 254.5Q223.4 259.9 223.4 271.5V300ZM264.7 300V222.2H293.2Q293.1 230 287.3 238.4H299.1Q303.1 219.5 318.9 219.5Q326.6 219.5 331.8 224.4Q337 229.3 337.9 238.4H347.1Q351.9 219.5 370.1 219.5Q381 219.5 387.8 227.2Q394.6 234.8 394.6 248.2V300H362.5V253.4Q362.5 248.5 360.3 245.8Q358.1 243 354.2 243Q349.7 243 347.4 246.7Q345.1 250.3 345.1 256V300H314.1V253.4Q314.1 248.5 311.9 245.8Q309.6 243 305.7 243Q296.6 243 296.6 256V300ZM405.6 279.7Q405.6 266.4 418.6 259Q431.6 251.6 455.6 250.2V247.5Q455.6 238.7 446.1 238.7Q436.2 238.7 434.4 248.6L404.5 244.4Q405.9 233.1 417.4 226.3Q428.9 219.5 447.2 219.5Q465.9 219.5 475.8 227.5Q485.7 235.5 485.7 250.8V273.5Q485.7 276.3 486.5 277.2Q487.3 278 489.8 278H495.2V300H479.9Q470.6 300 467.2 296.1Q463.8 292.3 463.5 283.9H454.6Q449.4 302.6 429.3 302.6Q418.6 302.6 412.1 296.4Q405.6 290.2 405.6 279.7ZM455.6 268.9V264.4Q436.1 266.3 436.1 276.2Q436.1 282.8 443.5 282.8Q448.8 282.8 452.2 279.1Q455.6 275.4 455.6 268.9ZM503.5 300V222.2H532.6Q531.9 231.3 526 239.9H537.6Q543.5 219.5 560.8 219.5Q572.4 219.5 579.4 226.9Q586.3 234.4 586.3 248.2V300H554.2V253.3Q554.2 243 545.3 243Q540.4 243 538 246.9Q535.6 250.8 535.6 257V300ZM596.9 261Q596.9 242.6 605 231.1Q613.1 219.5 625.8 219.5Q643.6 219.5 649.8 237.6H661.4Q654.3 226.6 654.3 210.9V191.7H685.5V300H656.5Q656.6 292.6 661.6 284.5H650Q643.6 302.5 625.8 302.5Q613 302.5 604.9 291Q596.9 279.6 596.9 261ZM654.8 261Q654.8 240.6 642.2 240.6Q629.8 240.6 629.8 261Q629.8 271.1 633.2 276.3Q636.5 281.6 642.2 281.6Q648.2 281.6 651.5 276.3Q654.8 271.1 654.8 261ZM696.5 261.2Q696.5 242.3 709 230.9Q721.5 219.5 741.7 219.5Q762.5 219.5 774.9 230.8Q787.4 242.1 787.4 261.2Q787.4 280.2 774.9 291.4Q762.5 302.6 741.7 302.6Q721.5 302.6 709 291.3Q696.5 279.9 696.5 261.2ZM753.8 261Q753.8 240.9 741.9 240.9Q730.3 240.9 730.3 261Q730.3 281.3 741.9 281.3Q753.8 281.3 753.8 261ZM825.9 246.5Q825.6 221.5 842.5 205.1Q859.4 188.7 885.7 189Q906.2 189 921 198.6Q935.8 208.2 940.8 224.6L906.4 235.5Q901.8 216 885 216Q874.5 216 868.7 223.9Q862.9 231.7 862.9 246.3Q862.9 259.8 868.9 267.8Q874.8 275.9 884.9 275.9Q900.7 275.9 907 256L940.9 267.8Q935.8 283.4 920.7 293Q905.6 302.6 885.4 302.6Q858.3 302.6 842.1 287.4Q825.9 272.1 825.9 246.5ZM949.7 274.3V222.2H981.9V268.6Q981.9 273.7 984.3 276.4Q986.6 279.1 990.6 279.1Q995.1 279.1 997.6 275.4Q1000.2 271.7 1000.2 265.5V222.2H1031.9V300H1003Q1003.3 292.6 1008.7 283.1H997.4Q991.5 302.6 973.4 302.6Q962.3 302.6 956 295.4Q949.7 288.1 949.7 274.3ZM1041.7 278.2 1070.8 274.3Q1071.7 283.9 1083 283.9Q1092.3 283.9 1092.3 278Q1092.3 273.2 1083.8 271.5L1074.3 269.8Q1058.5 266.7 1051.9 261.5Q1045.2 256.2 1045.2 245.1Q1045.2 233.8 1055.1 226.6Q1064.9 219.5 1082.8 219.5Q1099.9 219.5 1109.2 225.3Q1118.6 231.1 1120.8 240.3L1092.4 245.8Q1091.4 242 1088.3 239.6Q1085.3 237.3 1081.1 237.3Q1073.4 237.3 1073.4 242.9Q1073.4 247.4 1083.1 248.8L1094.4 250.8Q1123.4 255.9 1123.4 276Q1123.4 288.2 1112.8 295.4Q1102.2 302.6 1082.4 302.6Q1063.5 302.6 1053.5 295.7Q1043.5 288.7 1041.7 278.2ZM1140.3 275.9V243H1125.2V222.2H1140.3V198.5H1171.5V222.2H1188.7V243H1171.5V271.4Q1171.5 276.8 1176.9 276.8H1192.6V300H1164.2Q1152.6 300 1146.4 293.7Q1140.3 287.5 1140.3 275.9ZM1196.7 261.2Q1196.7 242.3 1209.2 230.9Q1221.7 219.5 1241.9 219.5Q1262.7 219.5 1275.1 230.8Q1287.6 242.1 1287.6 261.2Q1287.6 280.2 1275.1 291.4Q1262.7 302.6 1241.9 302.6Q1221.7 302.6 1209.2 291.3Q1196.7 279.9 1196.7 261.2ZM1254 261Q1254 240.9 1242.1 240.9Q1230.5 240.9 1230.5 261Q1230.5 281.3 1242.1 281.3Q1254 281.3 1254 261ZM1295 261Q1295 242.6 1303.2 231.1Q1311.3 219.5 1324 219.5Q1341.8 219.5 1348 237.6H1359.6Q1352.4 226.6 1352.4 210.9V191.7H1383.7V300H1354.6Q1354.8 292.6 1359.7 284.5H1348.1Q1341.8 302.5 1324 302.5Q1311.1 302.5 1303.1 291Q1295 279.6 1295 261ZM1352.9 261Q1352.9 240.6 1340.4 240.6Q1328 240.6 1328 261Q1328 271.1 1331.3 276.3Q1334.6 281.6 1340.4 281.6Q1346.4 281.6 1349.7 276.3Q1352.9 271.1 1352.9 261ZM1398.1 213.3V188.6H1430.9V213.3ZM1398.4 300V222.2H1430.8V300ZM1441.6 261.2Q1441.6 242.3 1454.1 230.9Q1466.5 219.5 1486.8 219.5Q1507.5 219.5 1520 230.8Q1532.4 242.1 1532.4 261.2Q1532.4 280.2 1520 291.4Q1507.5 302.6 1486.8 302.6Q1466.5 302.6 1454.1 291.3Q1441.6 279.9 1441.6 261.2ZM1498.9 261Q1498.9 240.9 1486.9 240.9Q1475.3 240.9 1475.3 261Q1475.3 281.3 1486.9 281.3Q1498.9 281.3 1498.9 261Z"/>
<path fill="#6d6d6d" d="M68.7 418V377.2H82Q91.5 377.2 97.1 382.7Q102.6 388.1 102.6 397.7Q102.6 407.2 97.1 412.6Q91.5 418 82 418ZM82 413.5Q89 413.5 93 409.3Q96.9 405.1 96.9 397.7Q96.9 390.1 93 385.9Q89 381.7 82 381.7H74.2V413.5ZM137.6 407.6Q136.3 413.1 132.5 415.9Q128.8 418.7 123.2 418.7Q116.3 418.7 112.3 414.3Q108.4 409.9 108.4 402.1Q108.4 394.1 112.3 389.7Q116.1 385.4 122.9 385.4Q129.6 385.4 133.5 389.7Q137.3 394.1 137.3 401.7V403H113.8Q114 408.3 116.5 411.2Q118.9 414.2 123.2 414.2Q130.4 414.2 132 407.6ZM122.9 389.9Q115.2 389.9 114 399H131.8Q131.3 394.7 128.9 392.3Q126.6 389.9 122.9 389.9ZM148.2 394.3Q148.2 396.7 150.4 397.9Q152.5 399.2 155.6 399.6Q158.6 400 161.6 400.7Q164.7 401.3 166.8 403.3Q168.9 405.3 168.9 409Q168.9 413.4 165.4 416.1Q161.9 418.7 156.2 418.7Q150.3 418.7 146.7 415.9Q143 413.1 142.1 407.6H147.4Q147.9 410.9 150.3 412.7Q152.6 414.5 156.3 414.5Q159.8 414.5 161.7 413.1Q163.7 411.7 163.7 409.4Q163.7 407.3 162.1 406.1Q160.6 405 158.3 404.6Q156.1 404.3 153.4 403.7Q150.8 403.1 148.5 402.4Q146.3 401.7 144.7 399.7Q143.2 397.8 143.2 394.7Q143.2 390.8 146.2 388.1Q149.2 385.4 154.8 385.4Q160.2 385.4 163.7 388.1Q167.1 390.8 167.8 396.5H162.5Q162 392.9 160 391.3Q158 389.7 154.5 389.7Q151.6 389.7 149.9 391Q148.2 392.3 148.2 394.3ZM175.2 381.9V374.8H180.5V381.9ZM175.2 418V386.1H180.5V418ZM200.3 418.2Q194.2 418.2 190.8 413.9Q187.3 409.5 187.3 401.9Q187.3 393.9 190.8 389.6Q194.2 385.4 200.3 385.4Q206.6 385.4 209.8 389.6V386.1H215.1V419Q215.1 425.3 211.4 428.6Q207.8 432 202.1 432Q196.3 432 192.6 429.2Q189 426.5 188.1 421.1H193.4Q193.9 424.2 196.2 425.9Q198.5 427.6 202 427.6Q205.7 427.6 207.7 425.5Q209.8 423.5 209.8 419.1V413.7Q206.4 418.2 200.3 418.2ZM201.2 413.7Q205.4 413.7 207.6 410.6Q209.8 407.6 209.8 401.8Q209.8 396.2 207.6 393Q205.3 389.9 201.2 389.9Q197.1 389.9 194.9 393Q192.7 396 192.7 401.9Q192.7 407.5 194.9 410.6Q197.1 413.7 201.2 413.7ZM223.5 418V386.1H228.8V390.5Q232.1 385.4 238.7 385.4Q243.8 385.4 246.6 388.3Q249.5 391.2 249.5 396.7V418H244.2V397.8Q244.2 394.1 242.4 392Q240.7 389.9 237.2 389.9Q233.4 389.9 231.1 392.7Q228.8 395.5 228.8 399.2V418ZM285.4 407.6Q284.1 413.1 280.4 415.9Q276.6 418.7 271.1 418.7Q264.1 418.7 260.2 414.3Q256.2 409.9 256.2 402.1Q256.2 394.1 260.1 389.7Q264 385.4 270.8 385.4Q277.5 385.4 281.3 389.7Q285.2 394.1 285.2 401.7V403H261.6Q261.9 408.3 264.3 411.2Q266.7 414.2 271.1 414.2Q278.2 414.2 279.9 407.6ZM270.8 389.9Q263 389.9 261.8 399H279.6Q279.1 394.7 276.8 392.3Q274.5 389.9 270.8 389.9ZM292.2 418V386.1H297.5V391.1Q300.6 385.4 306.9 385.4Q308.9 385.4 309.9 386.1V390.9Q308.6 390.5 306.6 390.5Q302 390.5 299.7 393.1Q297.5 395.7 297.5 400.2V418ZM338.5 418.7Q332.1 418.7 328.5 414.3Q324.9 409.9 324.9 402.1Q324.9 394.1 328.5 389.7Q332.1 385.4 338.5 385.4Q344.2 385.4 347.4 389.9V374.8H352.7V418H347.4V414Q344.1 418.7 338.5 418.7ZM338.9 414.2Q343.1 414.2 345.2 411.1Q347.4 408 347.4 402.1Q347.4 396.3 345.2 393.1Q342.9 389.9 338.9 389.9Q334.7 389.9 332.5 393.1Q330.3 396.2 330.3 402.1Q330.3 407.9 332.6 411Q334.8 414.2 338.9 414.2ZM388.7 407.6Q387.4 413.1 383.7 415.9Q379.9 418.7 374.3 418.7Q367.4 418.7 363.4 414.3Q359.5 409.9 359.5 402.1Q359.5 394.1 363.4 389.7Q367.2 385.4 374 385.4Q380.7 385.4 384.6 389.7Q388.4 394.1 388.4 401.7V403H364.9Q365.1 408.3 367.6 411.2Q370 414.2 374.3 414.2Q381.5 414.2 383.1 407.6ZM374 389.9Q366.3 389.9 365.1 399H382.9Q382.4 394.7 380.1 392.3Q377.7 389.9 374 389.9Z"/>
<g clip-path="url(#linha)"><g class="roleta" fill="#0b0b0b"><path d="M410.2 431.2H404.9L413.7 386.1H419L418.2 390Q422.7 385.4 428.1 385.4Q433.2 385.4 436.1 388.6Q438.9 391.8 438.9 397.5Q438.9 405.9 434 412.3Q429.1 418.7 421.6 418.7Q416 418.7 413.5 414.1ZM426.9 389.9Q421.8 389.9 418.6 395.1Q415.5 400.2 415.5 406.3Q415.5 410.1 417.2 412.1Q418.9 414.2 422.1 414.2Q426.8 414.2 430.1 409.2Q433.5 404.3 433.5 397.7Q433.5 393.9 431.8 391.9Q430.1 389.9 426.9 389.9ZM442.1 418 448.2 386.1H453.5L452.7 390.4Q456.8 385.4 462.6 385.4Q465.2 385.4 465.9 386.1L465 390.9Q463.8 390.5 461.8 390.5Q457.2 390.5 454.4 393.1Q451.7 395.7 450.8 400.2L447.3 418ZM477.2 418.7Q471.4 418.7 468.1 415.4Q464.9 412.1 464.9 406.1Q464.9 397.6 469.8 391.5Q474.8 385.4 482.7 385.4Q488.3 385.4 491.6 388.7Q494.9 392 494.9 398Q494.9 406.5 489.9 412.6Q484.9 418.7 477.2 418.7ZM477.7 414.2Q482.8 414.2 486.1 409.3Q489.5 404.4 489.5 398.1Q489.5 394.1 487.6 392Q485.7 389.9 482.1 389.9Q477 389.9 473.6 394.8Q470.3 399.6 470.3 405.9Q470.3 414.2 477.7 414.2ZM509.9 418.7Q504.8 418.7 501.9 415.5Q499.1 412.2 499.1 406.5Q499.1 398.2 504 391.8Q508.9 385.4 516.4 385.4Q522 385.4 524.5 390L527.4 374.8H532.7L524.3 418H519L519.8 414.1Q515.3 418.7 509.9 418.7ZM511.1 414.2Q516.2 414.2 519.4 409Q522.5 403.9 522.5 397.8Q522.5 394 520.8 392Q519.1 389.9 515.9 389.9Q511.2 389.9 507.9 394.8Q504.5 399.8 504.5 406.4Q504.5 410.1 506.2 412.1Q507.9 414.2 511.1 414.2ZM555.6 405 559.2 386.1H564.5L558.3 418H553.1L553.8 414.2Q549.7 418.7 544.1 418.7Q539.5 418.7 537.1 416.4Q534.7 414.2 534.7 409.9Q534.7 408.2 535.1 406.3L539 386.1H544.2L540.3 406.4Q540 407.9 540 408.9Q540 414.2 545.6 414.2Q549.2 414.2 552 411.4Q554.9 408.6 555.6 405ZM569.3 408.8 572.9 390.3H568.4L569.2 386.1H573.6L575.1 378.8H580.4L578.9 386.1H585.9L585.2 390.3H578.1L574.6 408.6Q574.3 410.1 574.3 411Q574.3 412.8 575.3 413.6Q576.3 414.5 578.7 414.5H580.3L579.6 418.2Q578.5 418.7 576 418.7Q572.4 418.7 570.6 417.2Q568.8 415.7 568.8 412.4Q568.8 411.2 569.3 408.8ZM598.1 418.7Q592.4 418.7 589.1 415.4Q585.8 412.1 585.8 406.1Q585.8 397.6 590.8 391.5Q595.8 385.4 603.6 385.4Q609.3 385.4 612.5 388.7Q615.8 392 615.9 398Q615.8 406.5 610.8 412.6Q605.9 418.7 598.1 418.7ZM598.7 414.2Q603.8 414.2 607.1 409.3Q610.4 404.4 610.4 398.1Q610.4 394.1 608.5 392Q606.6 389.9 603 389.9Q597.9 389.9 594.6 394.8Q591.3 399.6 591.3 405.9Q591.3 414.2 598.7 414.2ZM627.8 395Q627.8 396.9 629.6 397.9Q631.5 399 634.1 399.5Q636.8 400 639.4 400.7Q642 401.4 643.8 403.2Q645.6 405.1 645.6 408.2Q645.6 412.4 641.8 415.6Q638 418.7 631.6 418.7Q625.6 418.7 622.3 415.6Q618.9 412.5 618.9 407.6H624.2Q624.2 410.5 626.1 412.5Q627.9 414.5 631.8 414.5Q635.8 414.5 638 412.9Q640.2 411.3 640.2 408.9Q640.2 406.9 638.4 405.8Q636.6 404.7 634 404.2Q631.4 403.7 628.8 403.1Q626.3 402.4 624.4 400.5Q622.6 398.6 622.6 395.4Q622.6 391.2 626.2 388.3Q629.7 385.4 635.5 385.4Q640.8 385.4 644 388.2Q647.1 391.1 647.1 396.5H641.8Q641.8 389.7 634.9 389.7Q631.7 389.7 629.7 391.2Q627.8 392.7 627.8 395Z"/><path d="M437 491.6Q432.3 502.7 420.6 502.7Q415 502.7 411.7 499.4Q408.5 496.1 408.5 490.1Q408.5 481.7 413.4 475.5Q418.4 469.4 426.1 469.4Q432 469.4 435.2 472.6Q438.3 475.8 438.3 481.5Q438.3 483.2 437.9 485.7L437.7 487H414Q413.9 488.7 413.9 489.5Q413.9 498.2 421.4 498.2Q428.7 498.2 431.6 491.6ZM425.8 473.9Q422 473.9 419.2 476.4Q416.3 479 414.9 483H432.9Q432.9 482.6 432.9 481.8Q432.9 478 431.1 476Q429.3 473.9 425.8 473.9ZM461.3 502 455.7 491.4 454.7 488.9 452.6 491.4 443.1 502H437L452.3 485.4L444.1 470.1H450.5L455.3 479.5L456.5 482.1L458.5 479.5L466.8 470.1H473L458.9 485.4L467.7 502ZM475 515.2H469.7L478.5 470.1H483.8L483 474Q487.5 469.4 492.9 469.4Q498 469.4 500.9 472.6Q503.7 475.8 503.7 481.5Q503.7 489.9 498.8 496.3Q493.9 502.7 486.4 502.7Q480.8 502.7 478.3 498.1ZM491.7 473.9Q486.6 473.9 483.4 479.1Q480.3 484.2 480.3 490.3Q480.3 494.1 482 496.1Q483.7 498.2 486.9 498.2Q491.6 498.2 494.9 493.2Q498.3 488.3 498.3 481.7Q498.3 477.9 496.6 475.9Q494.9 473.9 491.7 473.9ZM536.4 491.6Q531.7 502.7 520.1 502.7Q514.4 502.7 511.2 499.4Q507.9 496.1 507.9 490.1Q507.9 481.7 512.9 475.5Q517.8 469.4 525.5 469.4Q531.5 469.4 534.6 472.6Q537.8 475.8 537.8 481.5Q537.8 483.2 537.3 485.7L537.1 487H513.5Q513.3 488.7 513.3 489.5Q513.3 498.2 520.8 498.2Q528.2 498.2 531 491.6ZM525.2 473.9Q521.4 473.9 518.6 476.4Q515.7 479 514.4 483H532.3Q532.4 482.6 532.4 481.8Q532.4 478 530.5 476Q528.7 473.9 525.2 473.9ZM541.2 502 547.4 470.1H552.6L551.8 474.4Q555.9 469.4 561.8 469.4Q564.3 469.4 565.1 470.1L564.2 474.9Q563 474.5 560.9 474.5Q556.3 474.5 553.5 477.1Q550.8 479.7 549.9 484.2L546.5 502ZM570.6 465.9 572 458.8H577.2L575.9 465.9ZM563.6 502 569.7 470.1H575L568.8 502ZM601.5 465.9 598.1 461.4 593 465.9H588L594.8 458.8H601.8L606.5 465.9ZM606.8 491.6Q602.1 502.7 590.4 502.7Q584.8 502.7 581.5 499.4Q578.3 496.1 578.3 490.1Q578.3 481.7 583.2 475.5Q588.2 469.4 595.9 469.4Q601.8 469.4 605 472.6Q608.1 475.8 608.1 481.5Q608.1 483.2 607.7 485.7L607.5 487H583.8Q583.7 488.7 583.7 489.5Q583.7 498.2 591.2 498.2Q598.5 498.2 601.4 491.6ZM595.6 473.9Q591.8 473.9 589 476.4Q586.1 479 584.7 483H602.7Q602.7 482.6 602.7 481.8Q602.7 478 600.9 476Q599.1 473.9 595.6 473.9ZM611.6 502 617.7 470.1H623L622.2 474Q626.4 469.4 632.5 469.4Q637.1 469.4 639.4 471.8Q641.8 474.3 641.8 478.5Q641.8 480 641.4 481.8L637.5 502H632.2L636.2 481.8Q636.4 480.6 636.4 479.4Q636.4 473.9 630.7 473.9Q626.9 473.9 624.1 476.7Q621.2 479.5 620.5 483.2L616.8 502ZM676.3 481.1H671.1Q671.1 477.5 669.2 475.7Q667.4 473.9 664.1 473.9Q658.9 473.9 655.6 478.7Q652.3 483.4 652.3 490Q652.3 493.8 654.2 496Q656.2 498.2 659.6 498.2Q666.4 498.2 669.3 491.4H674.5Q672.6 497 668.4 499.8Q664.3 502.7 659.1 502.7Q653.5 502.7 650.2 499.4Q646.9 496.1 646.9 490.1Q646.9 481.7 651.9 475.5Q656.9 469.4 664.5 469.4Q670 469.4 673.1 472.5Q676.2 475.6 676.3 481.1ZM686 465.9 687.4 458.8H692.7L691.3 465.9ZM679 502 685.2 470.1H690.5L684.3 502ZM701.4 480.5H696.1Q697.5 475.2 701.5 472.3Q705.5 469.4 711.1 469.4Q717 469.4 719.8 472Q722.6 474.6 722.6 479Q722.6 480.3 722.3 482L719.9 494.3Q719.2 497.8 719.2 499.6Q719.2 500.8 719.5 502H713.9Q713.7 501.3 713.7 500.3Q713.7 499.4 714 497.4Q709.2 502.7 702.6 502.7Q698 502.7 695.3 500.6Q692.6 498.4 692.6 494.6Q692.6 491.1 694.7 488.5Q696.8 485.9 700.8 484.6Q706.7 482.6 716.9 482.6L717 481.9Q717.2 480.7 717.2 479.4Q717.2 473.9 710.5 473.9Q703.7 473.9 701.4 480.5ZM698.1 494Q698.1 498.2 703.5 498.2Q707.8 498.2 711.4 495.2Q714.9 492.3 715.7 488.3L716.1 486.6Q706.1 486.6 702.1 488.5Q698.1 490.4 698.1 494ZM735.7 479Q735.7 480.9 737.5 481.9Q739.4 483 742 483.5Q744.6 484 747.2 484.7Q749.9 485.4 751.7 487.2Q753.5 489.1 753.5 492.2Q753.5 496.4 749.7 499.6Q745.8 502.7 739.5 502.7Q733.5 502.7 730.1 499.6Q726.8 496.5 726.8 491.6H732.1Q732.1 494.5 734 496.5Q735.8 498.5 739.7 498.5Q743.7 498.5 745.9 496.9Q748.1 495.3 748.1 492.9Q748.1 490.9 746.3 489.8Q744.5 488.7 741.9 488.2Q739.3 487.7 736.7 487.1Q734.1 486.4 732.3 484.5Q730.5 482.6 730.5 479.4Q730.5 475.2 734 472.3Q737.6 469.4 743.4 469.4Q748.7 469.4 751.8 472.2Q755 475.1 755 480.5H749.7Q749.7 473.7 742.8 473.7Q739.5 473.7 737.6 475.2Q735.7 476.7 735.7 479Z"/><path d="M416.1 564.5H410.9Q412.3 559.2 416.3 556.3Q420.3 553.4 425.9 553.4Q431.7 553.4 434.5 556Q437.3 558.6 437.3 563Q437.3 564.3 437 566L434.6 578.3Q434 581.8 434 583.6Q434 584.8 434.3 586H428.7Q428.5 585.3 428.5 584.3Q428.5 583.4 428.7 581.4Q423.9 586.7 417.3 586.7Q412.7 586.7 410.1 584.6Q407.4 582.4 407.4 578.6Q407.4 575.1 409.5 572.5Q411.6 569.9 415.5 568.6Q421.4 566.6 431.6 566.6L431.7 565.9Q432 564.7 432 563.4Q432 557.9 425.3 557.9Q418.5 557.9 416.1 564.5ZM412.9 578Q412.9 582.2 418.2 582.2Q422.6 582.2 426.1 579.2Q429.7 576.3 430.5 572.3L430.8 570.6Q420.9 570.6 416.9 572.5Q412.9 574.4 412.9 578ZM444.5 599.2H439.2L448 554.1H453.3L452.6 558Q457 553.4 462.5 553.4Q467.6 553.4 470.4 556.6Q473.3 559.8 473.3 565.5Q473.3 573.9 468.3 580.3Q463.4 586.7 455.9 586.7Q450.3 586.7 447.8 582.1ZM461.3 557.9Q456.1 557.9 453 563Q449.8 568.2 449.8 574.3Q449.8 578.1 451.5 580.1Q453.2 582.2 456.4 582.2Q461.1 582.2 464.4 577.2Q467.8 572.3 467.8 565.7Q467.8 561.9 466.1 559.9Q464.4 557.9 461.3 557.9ZM476.4 586 484.8 542.8H490.1L481.7 586ZM497.1 549.9 498.5 542.8H503.7L502.4 549.9ZM490.1 586 496.2 554.1H501.5L495.3 586ZM534.2 565.1H528.9Q528.9 561.5 527.1 559.7Q525.2 557.9 522 557.9Q516.8 557.9 513.5 562.7Q510.2 567.4 510.2 574Q510.2 577.8 512.1 580Q514.1 582.2 517.4 582.2Q524.3 582.2 527.1 575.4H532.4Q530.4 581 526.3 583.8Q522.2 586.7 517 586.7Q511.4 586.7 508.1 583.4Q504.8 580.1 504.8 574.1Q504.8 565.7 509.8 559.5Q514.8 553.4 522.4 553.4Q527.9 553.4 531 556.5Q534.1 559.6 534.2 565.1ZM545.6 564.5H540.3Q541.7 559.2 545.7 556.3Q549.7 553.4 555.3 553.4Q561.2 553.4 564 556Q566.7 558.6 566.7 563Q566.7 564.3 566.4 566L564 578.3Q563.4 581.8 563.4 583.6Q563.4 584.8 563.7 586H558.1Q557.9 585.3 557.9 584.3Q557.9 583.4 558.2 581.4Q553.4 586.7 546.8 586.7Q542.1 586.7 539.5 584.6Q536.8 582.4 536.8 578.6Q536.8 575.1 538.9 572.5Q541 569.9 545 568.6Q550.8 566.6 561 566.6L561.2 565.9Q561.4 564.7 561.4 563.4Q561.4 557.9 554.7 557.9Q547.9 557.9 545.6 564.5ZM542.3 578Q542.3 582.2 547.7 582.2Q552 582.2 555.5 579.2Q559.1 576.3 559.9 572.3L560.3 570.6Q550.3 570.6 546.3 572.5Q542.3 574.4 542.3 578ZM573.7 576.8 577.3 558.3H572.9L573.6 554.1H578.1L579.5 546.8H584.8L583.4 554.1H590.4L589.6 558.3H582.6L579 576.6Q578.7 578.1 578.7 579Q578.7 580.8 579.8 581.7Q580.8 582.5 583.1 582.5H584.7L584 586.2Q582.9 586.7 580.5 586.7Q576.8 586.7 575 585.2Q573.3 583.7 573.3 580.4Q573.3 579.2 573.7 576.8ZM596.3 549.9 597.6 542.8H602.9L601.5 549.9ZM589.2 586 595.4 554.1H600.7L594.5 586ZM610.9 586 605.2 554.1H610.8L614.8 578.9L615 581.4L616.2 578.9L629.9 554.1H635.4L617.4 586ZM647.1 586.7Q641.3 586.7 638 583.4Q634.8 580.1 634.8 574.1Q634.8 565.6 639.8 559.5Q644.7 553.4 652.6 553.4Q658.2 553.4 661.5 556.7Q664.8 560 664.8 566Q664.8 574.5 659.8 580.6Q654.8 586.7 647.1 586.7ZM647.6 582.2Q652.7 582.2 656 577.3Q659.4 572.4 659.4 566.1Q659.4 562.1 657.5 560Q655.6 557.9 652 557.9Q646.9 557.9 643.6 562.8Q640.2 567.6 640.2 573.9Q640.2 582.2 647.6 582.2ZM676.8 563Q676.8 564.9 678.6 565.9Q680.4 567 683.1 567.5Q685.7 568 688.3 568.7Q690.9 569.4 692.8 571.2Q694.6 573.1 694.6 576.2Q694.6 580.4 690.8 583.6Q686.9 586.7 680.6 586.7Q674.6 586.7 671.2 583.6Q667.9 580.5 667.9 575.6H673.2Q673.2 578.5 675 580.5Q676.9 582.5 680.7 582.5Q684.8 582.5 687 580.9Q689.2 579.3 689.2 576.9Q689.2 574.9 687.4 573.8Q685.5 572.7 683 572.2Q680.4 571.7 677.8 571.1Q675.2 570.4 673.4 568.5Q671.6 566.6 671.6 563.4Q671.6 559.2 675.1 556.3Q678.7 553.4 684.5 553.4Q689.8 553.4 692.9 556.2Q696 559.1 696 564.5H690.8Q690.8 557.7 683.9 557.7Q680.6 557.7 678.7 559.2Q676.8 560.7 676.8 563Z"/><path d="M414.5 633.9 415.8 626.8H421.1L419.7 633.9ZM407.4 670 413.6 638.1H418.9L412.7 670ZM421.1 670 427.3 638.1H432.6L431.8 642Q435.9 637.4 442.1 637.4Q446.6 637.4 449 639.8Q451.4 642.3 451.4 646.5Q451.4 648 451 649.8L447 670H441.8L445.7 649.8Q446 648.6 446 647.4Q446 641.9 440.3 641.9Q436.5 641.9 433.6 644.7Q430.8 647.5 430.1 651.2L426.4 670ZM458 660.8 461.6 642.3H457.1L457.9 638.1H462.3L463.8 630.8H469.1L467.6 638.1H474.6L473.9 642.3H466.8L463.3 660.6Q463 662.1 463 663Q463 664.8 464 665.7Q465 666.5 467.4 666.5H469L468.3 670.2Q467.2 670.7 464.7 670.7Q461.1 670.7 459.3 669.2Q457.5 667.7 457.5 664.4Q457.5 663.2 458 660.8ZM503.1 659.6Q498.3 670.7 486.7 670.7Q481.1 670.7 477.8 667.4Q474.5 664.1 474.5 658.1Q474.5 649.7 479.5 643.5Q484.5 637.4 492.2 637.4Q498.1 637.4 501.2 640.6Q504.4 643.8 504.4 649.5Q504.4 651.2 504 653.7L503.7 655H480.1Q480 656.7 480 657.5Q480 666.2 487.4 666.2Q494.8 666.2 497.6 659.6ZM491.9 641.9Q488.1 641.9 485.2 644.4Q482.4 647 481 651H498.9Q499 650.6 499 649.8Q499 646 497.2 644Q495.3 641.9 491.9 641.9ZM507.8 670 514 638.1H519.3L518.4 642.4Q522.5 637.4 528.4 637.4Q530.9 637.4 531.7 638.1L530.8 642.9Q529.6 642.5 527.6 642.5Q522.9 642.5 520.2 645.1Q517.4 647.7 516.6 652.2L513.1 670ZM531.7 642.3 532.5 638.1H536.9L537.4 635.7Q538.4 630.5 540.8 628.3Q543.3 626.1 547.7 626.1Q549.8 626.1 550.8 626.6L550 630.3H549.5Q546 630.3 544.6 631.6Q543.3 632.9 542.6 636.5L542.3 638.1H548.5L547.7 642.3H541.4L536 670H530.7L536.1 642.3ZM555.2 648.5H549.9Q551.4 643.2 555.4 640.3Q559.4 637.4 564.9 637.4Q570.8 637.4 573.6 640Q576.4 642.6 576.4 647Q576.4 648.3 576.1 650L573.7 662.3Q573 665.8 573 667.6Q573 668.8 573.3 670H567.8Q567.6 669.3 567.6 668.3Q567.6 667.4 567.8 665.4Q563 670.7 556.4 670.7Q551.8 670.7 549.1 668.6Q546.5 666.4 546.5 662.6Q546.5 659.1 548.6 656.5Q550.7 653.9 554.6 652.6Q560.5 650.6 570.7 650.6L570.8 649.9Q571.1 648.7 571.1 647.4Q571.1 641.9 564.3 641.9Q557.6 641.9 555.2 648.5ZM552 662Q552 666.2 557.3 666.2Q561.6 666.2 565.2 663.2Q568.8 660.3 569.6 656.3L569.9 654.6Q560 654.6 556 656.5Q552 658.4 552 662ZM611.3 649.1H606Q606 645.5 604.2 643.7Q602.3 641.9 599.1 641.9Q593.9 641.9 590.6 646.7Q587.3 651.4 587.3 658Q587.3 661.8 589.2 664Q591.2 666.2 594.5 666.2Q601.4 666.2 604.2 659.4H609.5Q607.5 665 603.4 667.8Q599.3 670.7 594.1 670.7Q588.5 670.7 585.2 667.4Q581.9 664.1 581.9 658.1Q581.9 649.7 586.9 643.5Q591.9 637.4 599.5 637.4Q605 637.4 608.1 640.5Q611.2 643.6 611.3 649.1ZM643.5 659.6Q638.8 670.7 627.2 670.7Q621.5 670.7 618.2 667.4Q615 664.1 615 658.1Q615 649.7 620 643.5Q624.9 637.4 632.6 637.4Q638.6 637.4 641.7 640.6Q644.9 643.8 644.9 649.5Q644.9 651.2 644.4 653.7L644.2 655H620.6Q620.4 656.7 620.4 657.5Q620.4 666.2 627.9 666.2Q635.3 666.2 638.1 659.6ZM632.3 641.9Q628.5 641.9 625.7 644.4Q622.8 647 621.5 651H639.4Q639.5 650.6 639.5 649.8Q639.5 646 637.6 644Q635.8 641.9 632.3 641.9ZM657 647Q657 648.9 658.8 649.9Q660.6 651 663.3 651.5Q665.9 652 668.5 652.7Q671.1 653.4 673 655.2Q674.8 657.1 674.8 660.2Q674.8 664.4 671 667.6Q667.1 670.7 660.8 670.7Q654.8 670.7 651.4 667.6Q648.1 664.5 648.1 659.6H653.4Q653.4 662.5 655.2 664.5Q657.1 666.5 660.9 666.5Q665 666.5 667.2 664.9Q669.4 663.3 669.4 660.9Q669.4 658.9 667.6 657.8Q665.7 656.7 663.2 656.2Q660.6 655.7 658 655.1Q655.4 654.4 653.6 652.5Q651.8 650.6 651.8 647.4Q651.8 643.2 655.3 640.3Q658.9 637.4 664.7 637.4Q670 637.4 673.1 640.2Q676.2 643.1 676.2 648.5H671Q671 641.7 664.1 641.7Q660.8 641.7 658.9 643.2Q657 644.7 657 647Z"/><path d="M416.1 731Q416.1 732.9 418 733.9Q419.8 735 422.4 735.5Q425.1 736 427.7 736.7Q430.3 737.4 432.1 739.2Q434 741.1 434 744.2Q434 748.4 430.1 751.6Q426.3 754.7 419.9 754.7Q413.9 754.7 410.6 751.6Q407.3 748.5 407.3 743.6H412.5Q412.5 746.5 414.4 748.5Q416.3 750.5 420.1 750.5Q424.1 750.5 426.3 748.9Q428.6 747.3 428.6 744.9Q428.6 742.9 426.7 741.8Q424.9 740.7 422.3 740.2Q419.7 739.7 417.2 739.1Q414.6 738.4 412.8 736.5Q410.9 734.6 410.9 731.4Q410.9 727.2 414.5 724.3Q418.1 721.4 423.8 721.4Q429.2 721.4 432.3 724.2Q435.4 727.1 435.4 732.5H430.1Q430.1 725.7 423.2 725.7Q420 725.7 418.1 727.2Q416.1 728.7 416.1 731ZM445.4 717.9 446.7 710.8H452L450.6 717.9ZM438.3 754 444.5 722.1H449.8L443.6 754ZM460.7 731Q460.7 732.9 462.5 733.9Q464.4 735 467 735.5Q469.7 736 472.3 736.7Q474.9 737.4 476.7 739.2Q478.5 741.1 478.5 744.2Q478.5 748.4 474.7 751.6Q470.9 754.7 464.5 754.7Q458.5 754.7 455.2 751.6Q451.8 748.5 451.8 743.6H457.1Q457.1 746.5 459 748.5Q460.8 750.5 464.7 750.5Q468.7 750.5 470.9 748.9Q473.1 747.3 473.1 744.9Q473.1 742.9 471.3 741.8Q469.5 740.7 466.9 740.2Q464.3 739.7 461.7 739.1Q459.2 738.4 457.3 736.5Q455.5 734.6 455.5 731.4Q455.5 727.2 459.1 724.3Q462.6 721.4 468.4 721.4Q473.7 721.4 476.9 724.2Q480 727.1 480 732.5H474.7Q474.7 725.7 467.8 725.7Q464.6 725.7 462.6 727.2Q460.7 728.7 460.7 731ZM485.4 744.8 489 726.3H484.6L485.4 722.1H489.8L491.3 714.8H496.5L495.1 722.1H502.1L501.3 726.3H494.3L490.8 744.6Q490.5 746.1 490.5 747Q490.5 748.8 491.5 749.7Q492.5 750.5 494.9 750.5H496.5L495.8 754.2Q494.7 754.7 492.2 754.7Q488.6 754.7 486.8 753.2Q485 751.7 485 748.4Q485 747.2 485.4 744.8ZM530.6 743.6Q525.8 754.7 514.2 754.7Q508.5 754.7 505.3 751.4Q502 748.1 502 742.1Q502 733.7 507 727.5Q512 721.4 519.6 721.4Q525.6 721.4 528.7 724.6Q531.9 727.8 531.9 733.5Q531.9 735.2 531.5 737.7L531.2 739H507.6Q507.5 740.7 507.5 741.5Q507.5 750.2 514.9 750.2Q522.3 750.2 525.1 743.6ZM519.3 725.9Q515.6 725.9 512.7 728.4Q509.9 731 508.5 735H526.4Q526.5 734.6 526.5 733.8Q526.5 730 524.6 728Q522.8 725.9 519.3 725.9ZM535.3 754 541.5 722.1H546.8L546 725.8Q549.9 721.4 555.5 721.4Q561.9 721.4 563.6 726.9Q567.9 721.4 574.5 721.4Q578.7 721.4 581 723.9Q583.2 726.4 583.2 730.5Q583.2 732.3 582.9 733.8L579 754H573.7L577.7 733.8Q578 732.3 578 731.2Q578 728.7 576.7 727.3Q575.4 725.9 572.9 725.9Q569.6 725.9 567.1 728.4Q564.5 730.9 563.6 734.4L559.8 754H554.5L558.5 733.8Q558.8 732.3 558.8 731.2Q558.8 728.7 557.5 727.3Q556.2 725.9 553.7 725.9Q550.2 725.9 547.6 728.7Q545 731.5 544.2 735.2L540.6 754ZM596.1 732.5H590.8Q592.2 727.2 596.2 724.3Q600.2 721.4 605.8 721.4Q611.7 721.4 614.5 724Q617.3 726.6 617.3 731Q617.3 732.3 617 734L614.6 746.3Q613.9 749.8 613.9 751.6Q613.9 752.8 614.2 754H608.6Q608.4 753.3 608.4 752.3Q608.4 751.4 608.7 749.4Q603.9 754.7 597.3 754.7Q592.7 754.7 590 752.6Q587.3 750.4 587.3 746.6Q587.3 743.1 589.4 740.5Q591.5 737.9 595.5 736.6Q601.4 734.6 611.6 734.6L611.7 733.9Q611.9 732.7 611.9 731.4Q611.9 725.9 605.2 725.9Q598.4 725.9 596.1 732.5ZM592.8 746Q592.8 750.2 598.2 750.2Q602.5 750.2 606.1 747.2Q609.6 744.3 610.4 740.3L610.8 738.6Q600.8 738.6 596.8 740.5Q592.8 742.4 592.8 746ZM630.4 731Q630.4 732.9 632.2 733.9Q634.1 735 636.7 735.5Q639.3 736 642 736.7Q644.6 737.4 646.4 739.2Q648.2 741.1 648.2 744.2Q648.2 748.4 644.4 751.6Q640.5 754.7 634.2 754.7Q628.2 754.7 624.8 751.6Q621.5 748.5 621.5 743.6H626.8Q626.8 746.5 628.7 748.5Q630.5 750.5 634.4 750.5Q638.4 750.5 640.6 748.9Q642.8 747.3 642.8 744.9Q642.8 742.9 641 741.8Q639.2 740.7 636.6 740.2Q634 739.7 631.4 739.1Q628.8 738.4 627 736.5Q625.2 734.6 625.2 731.4Q625.2 727.2 628.8 724.3Q632.3 721.4 638.1 721.4Q643.4 721.4 646.5 724.2Q649.7 727.1 649.7 732.5H644.4Q644.4 725.7 637.5 725.7Q634.2 725.7 632.3 727.2Q630.4 728.7 630.4 731Z"/><path d="M407.4 838 413.6 806.1H418.9L418.2 809.8Q422.1 805.4 427.7 805.4Q434.1 805.4 435.8 810.9Q440.1 805.4 446.7 805.4Q450.9 805.4 453.1 807.9Q455.4 810.4 455.4 814.5Q455.4 816.3 455.1 817.8L451.1 838H445.8L449.8 817.8Q450.1 816.3 450.1 815.2Q450.1 812.7 448.8 811.3Q447.5 809.9 445.1 809.9Q441.8 809.9 439.2 812.4Q436.7 814.9 435.8 818.4L431.9 838H426.6L430.6 817.8Q430.9 816.3 430.9 815.2Q430.9 812.7 429.6 811.3Q428.3 809.9 425.9 809.9Q422.4 809.9 419.7 812.7Q417.1 815.5 416.4 819.2L412.7 838ZM476.4 801.9 483.2 794.8H490.5L481.6 801.9ZM482.3 825 486 806.1H491.3L485.1 838H479.8L480.5 834.2Q476.4 838.7 470.8 838.7Q466.2 838.7 463.8 836.4Q461.4 834.2 461.4 829.9Q461.4 828.2 461.8 826.3L465.7 806.1H471L467.1 826.4Q466.8 827.9 466.8 828.9Q466.8 834.2 472.3 834.2Q476 834.2 478.8 831.4Q481.6 828.6 482.3 825ZM502.2 815Q502.2 816.9 504 817.9Q505.8 819 508.5 819.5Q511.1 820 513.7 820.7Q516.3 821.4 518.2 823.2Q520 825.1 520 828.2Q520 832.4 516.2 835.6Q512.3 838.7 506 838.7Q500 838.7 496.6 835.6Q493.3 832.5 493.3 827.6H498.6Q498.6 830.5 500.4 832.5Q502.3 834.5 506.1 834.5Q510.2 834.5 512.4 832.9Q514.6 831.3 514.6 828.9Q514.6 826.9 512.8 825.8Q510.9 824.7 508.4 824.2Q505.8 823.7 503.2 823.1Q500.6 822.4 498.8 820.5Q497 818.6 497 815.4Q497 811.2 500.5 808.3Q504.1 805.4 509.9 805.4Q515.2 805.4 518.3 808.2Q521.4 811.1 521.4 816.5H516.2Q516.2 809.7 509.3 809.7Q506 809.7 504.1 811.2Q502.2 812.7 502.2 815ZM531.4 801.9 532.8 794.8H538.1L536.7 801.9ZM524.4 838 530.6 806.1H535.8L529.7 838ZM568.5 817.1H563.3Q563.3 813.5 561.4 811.7Q559.5 809.9 556.3 809.9Q551.1 809.9 547.8 814.7Q544.5 819.4 544.5 826Q544.5 829.8 546.4 832Q548.4 834.2 551.7 834.2Q558.6 834.2 561.5 827.4H566.7Q564.8 833 560.6 835.8Q556.5 838.7 551.3 838.7Q545.7 838.7 542.4 835.4Q539.1 832.1 539.1 826.1Q539.1 817.7 544.1 811.5Q549.1 805.4 556.7 805.4Q562.2 805.4 565.3 808.5Q568.4 811.6 568.5 817.1ZM579.9 816.5H574.6Q576 811.2 580 808.3Q584 805.4 589.6 805.4Q595.5 805.4 598.3 808Q601.1 810.6 601.1 815Q601.1 816.3 600.8 818L598.4 830.3Q597.7 833.8 597.7 835.6Q597.7 836.8 598 838H592.4Q592.2 837.3 592.2 836.3Q592.2 835.4 592.5 833.4Q587.7 838.7 581.1 838.7Q576.5 838.7 573.8 836.6Q571.1 834.4 571.1 830.6Q571.1 827.1 573.2 824.5Q575.3 821.9 579.3 820.6Q585.2 818.6 595.4 818.6L595.5 817.9Q595.7 816.7 595.7 815.4Q595.7 809.9 589 809.9Q582.2 809.9 579.9 816.5ZM576.6 830Q576.6 834.2 582 834.2Q586.3 834.2 589.9 831.2Q593.4 828.3 594.2 824.3L594.6 822.6Q584.6 822.6 580.6 824.5Q576.6 826.4 576.6 830ZM614.2 815Q614.2 816.9 616 817.9Q617.9 819 620.5 819.5Q623.1 820 625.8 820.7Q628.4 821.4 630.2 823.2Q632 825.1 632 828.2Q632 832.4 628.2 835.6Q624.3 838.7 618 838.7Q612 838.7 608.6 835.6Q605.3 832.5 605.3 827.6H610.6Q610.6 830.5 612.5 832.5Q614.3 834.5 618.2 834.5Q622.2 834.5 624.4 832.9Q626.6 831.3 626.6 828.9Q626.6 826.9 624.8 825.8Q623 824.7 620.4 824.2Q617.8 823.7 615.2 823.1Q612.6 822.4 610.8 820.5Q609 818.6 609 815.4Q609 811.2 612.5 808.3Q616.1 805.4 621.9 805.4Q627.2 805.4 630.3 808.2Q633.5 811.1 633.5 816.5H628.2Q628.2 809.7 621.3 809.7Q618 809.7 616.1 811.2Q614.2 812.7 614.2 815Z"/><path d="M416.1 899Q416.1 900.9 418 901.9Q419.8 903 422.4 903.5Q425.1 904 427.7 904.7Q430.3 905.4 432.1 907.2Q434 909.1 434 912.2Q434 916.4 430.1 919.6Q426.3 922.7 419.9 922.7Q413.9 922.7 410.6 919.6Q407.3 916.5 407.3 911.6H412.5Q412.5 914.5 414.4 916.5Q416.3 918.5 420.1 918.5Q424.1 918.5 426.3 916.9Q428.6 915.3 428.6 912.9Q428.6 910.9 426.7 909.8Q424.9 908.7 422.3 908.2Q419.7 907.7 417.2 907.1Q414.6 906.4 412.8 904.5Q410.9 902.6 410.9 899.4Q410.9 895.2 414.5 892.3Q418.1 889.4 423.8 889.4Q429.2 889.4 432.3 892.2Q435.4 895.1 435.4 900.5H430.1Q430.1 893.7 423.2 893.7Q420 893.7 418.1 895.2Q416.1 896.7 416.1 899ZM451.7 922.7Q445.9 922.7 442.6 919.4Q439.4 916.1 439.4 910.1Q439.4 901.6 444.3 895.5Q449.3 889.4 457.2 889.4Q462.8 889.4 466.1 892.7Q469.4 896 469.4 902Q469.4 910.5 464.4 916.6Q459.4 922.7 451.7 922.7ZM452.2 918.2Q457.3 918.2 460.6 913.3Q464 908.4 464 902.1Q464 898.1 462.1 896Q460.2 893.9 456.6 893.9Q451.5 893.9 448.1 898.8Q444.8 903.6 444.8 909.9Q444.8 918.2 452.2 918.2ZM472.7 922 478.8 890.1H484.1L483.3 894Q487.5 889.4 493.6 889.4Q498.2 889.4 500.5 891.8Q502.9 894.3 502.9 898.5Q502.9 900 502.5 901.8L498.6 922H493.3L497.3 901.8Q497.5 900.6 497.5 899.4Q497.5 893.9 491.8 893.9Q488 893.9 485.2 896.7Q482.3 899.5 481.6 903.2L477.9 922ZM507 922 515.4 878.8H520.7L517.6 894.5Q522 889.4 528.5 889.4Q532.8 889.4 535.1 891.4Q537.4 893.5 537.4 897.5Q537.4 899 537 900.7L532.9 922H527.6L531.6 901.8Q531.8 900.6 531.8 899.4Q531.8 893.9 526.1 893.9Q522.3 893.9 519.5 896.7Q516.6 899.4 516 903L512.3 922ZM554.6 922.7Q548.9 922.7 545.6 919.4Q542.3 916.1 542.3 910.1Q542.3 901.6 547.3 895.5Q552.3 889.4 560.1 889.4Q565.8 889.4 569 892.7Q572.3 896 572.4 902Q572.3 910.5 567.3 916.6Q562.4 922.7 554.6 922.7ZM555.2 918.2Q560.3 918.2 563.6 913.3Q566.9 908.4 566.9 902.1Q566.9 898.1 565 896Q563.1 893.9 559.5 893.9Q554.4 893.9 551.1 898.8Q547.8 903.6 547.8 909.9Q547.8 918.2 555.2 918.2ZM584.3 899Q584.3 900.9 586.2 901.9Q588 903 590.6 903.5Q593.3 904 595.9 904.7Q598.5 905.4 600.3 907.2Q602.1 909.1 602.1 912.2Q602.1 916.4 598.3 919.6Q594.5 922.7 588.1 922.7Q582.1 922.7 578.8 919.6Q575.4 916.5 575.4 911.6H580.7Q580.7 914.5 582.6 916.5Q584.4 918.5 588.3 918.5Q592.3 918.5 594.5 916.9Q596.7 915.3 596.7 912.9Q596.7 910.9 594.9 909.8Q593.1 908.7 590.5 908.2Q587.9 907.7 585.3 907.1Q582.8 906.4 580.9 904.5Q579.1 902.6 579.1 899.4Q579.1 895.2 582.7 892.3Q586.2 889.4 592 889.4Q597.3 889.4 600.5 892.2Q603.6 895.1 603.6 900.5H598.3Q598.3 893.7 591.4 893.7Q588.2 893.7 586.2 895.2Q584.3 896.7 584.3 899Z"/><path d="M437 995.6Q432.3 1006.7 420.6 1006.7Q415 1006.7 411.7 1003.4Q408.5 1000.1 408.5 994.1Q408.5 985.7 413.4 979.5Q418.4 973.4 426.1 973.4Q432 973.4 435.2 976.6Q438.3 979.8 438.3 985.5Q438.3 987.2 437.9 989.7L437.7 991H414Q413.9 992.7 413.9 993.5Q413.9 1002.2 421.4 1002.2Q428.7 1002.2 431.6 995.6ZM425.8 977.9Q422 977.9 419.2 980.4Q416.3 983 414.9 987H432.9Q432.9 986.6 432.9 985.8Q432.9 982 431.1 980Q429.3 977.9 425.8 977.9ZM441.8 1006 447.9 974.1H453.2L452.5 977.8Q456.4 973.4 462 973.4Q468.4 973.4 470.1 978.9Q474.4 973.4 481 973.4Q485.2 973.4 487.4 975.9Q489.7 978.4 489.7 982.5Q489.7 984.3 489.4 985.8L485.4 1006H480.2L484.1 985.8Q484.4 984.3 484.4 983.2Q484.4 980.7 483.1 979.3Q481.8 977.9 479.4 977.9Q476.1 977.9 473.5 980.4Q471 982.9 470.1 986.4L466.2 1006H461L464.9 985.8Q465.2 984.3 465.2 983.2Q465.2 980.7 463.9 979.3Q462.6 977.9 460.2 977.9Q456.7 977.9 454.1 980.7Q451.4 983.5 450.7 987.2L447 1006ZM499.2 1006H493.9L502.3 962.8H507.6L504.6 978Q509.1 973.4 514.5 973.4Q519.6 973.4 522.5 976.6Q525.3 979.8 525.3 985.5Q525.3 993.9 520.4 1000.3Q515.5 1006.7 508 1006.7Q502.5 1006.7 500 1002.1ZM513.3 977.9Q508.2 977.9 505 983Q501.9 988.2 501.9 994.3Q501.9 998.1 503.6 1000.1Q505.3 1002.2 508.5 1002.2Q513.2 1002.2 516.5 997.2Q519.9 992.3 519.9 985.7Q519.9 981.9 518.2 979.9Q516.5 977.9 513.3 977.9ZM537.2 984.5H531.9Q533.3 979.2 537.3 976.3Q541.3 973.4 546.9 973.4Q552.8 973.4 555.5 976Q558.3 978.6 558.3 983Q558.3 984.3 558 986L555.6 998.3Q555 1001.8 555 1003.6Q555 1004.8 555.3 1006H549.7Q549.5 1005.3 549.5 1004.3Q549.5 1003.4 549.8 1001.4Q545 1006.7 538.4 1006.7Q533.7 1006.7 531.1 1004.6Q528.4 1002.4 528.4 998.6Q528.4 995.1 530.5 992.5Q532.6 989.9 536.6 988.6Q542.4 986.6 552.6 986.6L552.8 985.9Q553 984.7 553 983.4Q553 977.9 546.3 977.9Q539.5 977.9 537.2 984.5ZM533.9 998Q533.9 1002.2 539.3 1002.2Q543.6 1002.2 547.2 999.2Q550.7 996.3 551.5 992.3L551.9 990.6Q541.9 990.6 537.9 992.5Q533.9 994.4 533.9 998ZM562.8 1006 571.2 962.8H576.5L568.1 1006ZM585.2 984.5H579.9Q581.3 979.2 585.3 976.3Q589.3 973.4 594.9 973.4Q600.8 973.4 603.5 976Q606.3 978.6 606.3 983Q606.3 984.3 606 986L603.6 998.3Q603 1001.8 603 1003.6Q603 1004.8 603.3 1006H597.7Q597.5 1005.3 597.5 1004.3Q597.5 1003.4 597.8 1001.4Q593 1006.7 586.4 1006.7Q581.7 1006.7 579.1 1004.6Q576.4 1002.4 576.4 998.6Q576.4 995.1 578.5 992.5Q580.6 989.9 584.6 988.6Q590.4 986.6 600.6 986.6L600.8 985.9Q601 984.7 601 983.4Q601 977.9 594.3 977.9Q587.5 977.9 585.2 984.5ZM581.9 998Q581.9 1002.2 587.3 1002.2Q591.6 1002.2 595.2 999.2Q598.7 996.3 599.5 992.3L599.9 990.6Q589.9 990.6 585.9 992.5Q581.9 994.4 581.9 998ZM622.5 1006.2Q617.4 1006.2 614.5 1003.1Q611.7 999.9 611.7 994.3Q611.7 986 616.6 979.7Q621.5 973.4 629 973.4Q634.6 973.4 637.1 977.9L637.8 974.1H643.1L636.7 1007.3Q635.4 1014 631.4 1017Q627.3 1020 621.5 1020Q615.9 1020 612.6 1017Q609.4 1013.9 609.4 1009.1H614.7Q615.3 1015.6 622 1015.6Q629.8 1015.6 631.4 1007.1L632.5 1001.6Q627.9 1006.2 622.5 1006.2ZM623.7 1001.7Q628.8 1001.7 632 996.6Q635.1 991.5 635.1 985.5Q635.1 981.9 633.4 979.9Q631.7 977.9 628.5 977.9Q623.9 977.9 620.5 982.8Q617.1 987.6 617.1 994.1Q617.1 997.8 618.8 999.8Q620.5 1001.7 623.7 1001.7ZM675 995.6Q670.2 1006.7 658.6 1006.7Q653 1006.7 649.7 1003.4Q646.4 1000.1 646.4 994.1Q646.4 985.7 651.4 979.5Q656.4 973.4 664.1 973.4Q670 973.4 673.2 976.6Q676.3 979.8 676.3 985.5Q676.3 987.2 675.9 989.7L675.6 991H652Q651.9 992.7 651.9 993.5Q651.9 1002.2 659.3 1002.2Q666.7 1002.2 669.5 995.6ZM663.8 977.9Q660 977.9 657.1 980.4Q654.3 983 652.9 987H670.8Q670.9 986.6 670.9 985.8Q670.9 982 669.1 980Q667.2 977.9 663.8 977.9ZM679.7 1006 685.9 974.1H691.2L690.4 978Q694.5 973.4 700.7 973.4Q705.2 973.4 707.6 975.8Q710 978.3 710 982.5Q710 984 709.6 985.8L705.6 1006H700.4L704.3 985.8Q704.6 984.6 704.6 983.4Q704.6 977.9 698.9 977.9Q695.1 977.9 692.2 980.7Q689.4 983.5 688.7 987.2L685 1006ZM722.7 983Q722.7 984.9 724.6 985.9Q726.4 987 729 987.5Q731.7 988 734.3 988.7Q736.9 989.4 738.7 991.2Q740.6 993.1 740.6 996.2Q740.6 1000.4 736.7 1003.6Q732.9 1006.7 726.5 1006.7Q720.5 1006.7 717.2 1003.6Q713.9 1000.5 713.9 995.6H719.1Q719.1 998.5 721 1000.5Q722.9 1002.5 726.7 1002.5Q730.7 1002.5 732.9 1000.9Q735.2 999.3 735.2 996.9Q735.2 994.9 733.3 993.8Q731.5 992.7 728.9 992.2Q726.3 991.7 723.8 991.1Q721.2 990.4 719.3 988.5Q717.5 986.6 717.5 983.4Q717.5 979.2 721.1 976.3Q724.7 973.4 730.4 973.4Q735.8 973.4 738.9 976.2Q742 979.1 742 984.5H736.7Q736.7 977.7 729.8 977.7Q726.6 977.7 724.7 979.2Q722.7 980.7 722.7 983Z"/><path d="M416.1 1067Q416.1 1068.9 418 1069.9Q419.8 1071 422.4 1071.5Q425.1 1072 427.7 1072.7Q430.3 1073.4 432.1 1075.2Q434 1077.1 434 1080.2Q434 1084.4 430.1 1087.6Q426.3 1090.7 419.9 1090.7Q413.9 1090.7 410.6 1087.6Q407.3 1084.5 407.3 1079.6H412.5Q412.5 1082.5 414.4 1084.5Q416.3 1086.5 420.1 1086.5Q424.1 1086.5 426.3 1084.9Q428.6 1083.3 428.6 1080.9Q428.6 1078.9 426.7 1077.8Q424.9 1076.7 422.3 1076.2Q419.7 1075.7 417.2 1075.1Q414.6 1074.4 412.8 1072.5Q410.9 1070.6 410.9 1067.4Q410.9 1063.2 414.5 1060.3Q418.1 1057.4 423.8 1057.4Q429.2 1057.4 432.3 1060.2Q435.4 1063.1 435.4 1068.5H430.1Q430.1 1061.7 423.2 1061.7Q420 1061.7 418.1 1063.2Q416.1 1064.7 416.1 1067ZM445.4 1053.9 446.7 1046.8H452L450.6 1053.9ZM438.3 1090 444.5 1058.1H449.8L443.6 1090ZM454.5 1080.8 458.1 1062.3H453.7L454.5 1058.1H458.9L460.4 1050.8H465.6L464.2 1058.1H471.2L470.4 1062.3H463.4L459.9 1080.6Q459.6 1082.1 459.6 1083Q459.6 1084.8 460.6 1085.7Q461.6 1086.5 464 1086.5H465.6L464.9 1090.2Q463.8 1090.7 461.3 1090.7Q457.7 1090.7 455.9 1089.2Q454.1 1087.7 454.1 1084.4Q454.1 1083.2 454.5 1080.8ZM499.7 1079.6Q494.9 1090.7 483.3 1090.7Q477.6 1090.7 474.4 1087.4Q471.1 1084.1 471.1 1078.1Q471.1 1069.7 476.1 1063.5Q481.1 1057.4 488.7 1057.4Q494.7 1057.4 497.8 1060.6Q501 1063.8 501 1069.5Q501 1071.2 500.6 1073.7L500.3 1075H476.7Q476.6 1076.7 476.6 1077.5Q476.6 1086.2 484 1086.2Q491.4 1086.2 494.2 1079.6ZM488.4 1061.9Q484.7 1061.9 481.8 1064.4Q479 1067 477.6 1071H495.5Q495.6 1070.6 495.6 1069.8Q495.6 1066 493.8 1064Q491.9 1061.9 488.4 1061.9ZM513.1 1067Q513.1 1068.9 514.9 1069.9Q516.8 1071 519.4 1071.5Q522 1072 524.6 1072.7Q527.3 1073.4 529.1 1075.2Q530.9 1077.1 530.9 1080.2Q530.9 1084.4 527.1 1087.6Q523.2 1090.7 516.9 1090.7Q510.9 1090.7 507.5 1087.6Q504.2 1084.5 504.2 1079.6H509.5Q509.5 1082.5 511.4 1084.5Q513.2 1086.5 517.1 1086.5Q521.1 1086.5 523.3 1084.9Q525.5 1083.3 525.5 1080.9Q525.5 1078.9 523.7 1077.8Q521.9 1076.7 519.3 1076.2Q516.7 1075.7 514.1 1075.1Q511.5 1074.4 509.7 1072.5Q507.9 1070.6 507.9 1067.4Q507.9 1063.2 511.4 1060.3Q515 1057.4 520.8 1057.4Q526.1 1057.4 529.2 1060.2Q532.4 1063.1 532.4 1068.5H527.1Q527.1 1061.7 520.2 1061.7Q516.9 1061.7 515 1063.2Q513.1 1064.7 513.1 1067Z"/><path d="M410.2 1187.2H404.9L413.7 1142.1H419L418.2 1146Q422.7 1141.4 428.1 1141.4Q433.2 1141.4 436.1 1144.6Q438.9 1147.8 438.9 1153.5Q438.9 1161.9 434 1168.3Q429.1 1174.7 421.6 1174.7Q416 1174.7 413.5 1170.1ZM426.9 1145.9Q421.8 1145.9 418.6 1151.1Q415.5 1156.2 415.5 1162.3Q415.5 1166.1 417.2 1168.1Q418.9 1170.2 422.1 1170.2Q426.8 1170.2 430.1 1165.2Q433.5 1160.3 433.5 1153.7Q433.5 1149.9 431.8 1147.9Q430.1 1145.9 426.9 1145.9ZM442.1 1174 448.2 1142.1H453.5L452.7 1146.4Q456.8 1141.4 462.6 1141.4Q465.2 1141.4 465.9 1142.1L465 1146.9Q463.8 1146.5 461.8 1146.5Q457.2 1146.5 454.4 1149.1Q451.7 1151.7 450.8 1156.2L447.3 1174ZM477.2 1174.7Q471.4 1174.7 468.1 1171.4Q464.9 1168.1 464.9 1162.1Q464.9 1153.6 469.8 1147.5Q474.8 1141.4 482.7 1141.4Q488.3 1141.4 491.6 1144.7Q494.9 1148 494.9 1154Q494.9 1162.5 489.9 1168.6Q484.9 1174.7 477.2 1174.7ZM477.7 1170.2Q482.8 1170.2 486.1 1165.3Q489.5 1160.4 489.5 1154.1Q489.5 1150.1 487.6 1148Q485.7 1145.9 482.1 1145.9Q477 1145.9 473.6 1150.8Q470.3 1155.6 470.3 1161.9Q470.3 1170.2 477.7 1170.2ZM509.9 1174.7Q504.8 1174.7 501.9 1171.5Q499.1 1168.2 499.1 1162.5Q499.1 1154.2 504 1147.8Q508.9 1141.4 516.4 1141.4Q522 1141.4 524.5 1146L527.4 1130.8H532.7L524.3 1174H519L519.8 1170.1Q515.3 1174.7 509.9 1174.7ZM511.1 1170.2Q516.2 1170.2 519.4 1165Q522.5 1159.9 522.5 1153.8Q522.5 1150 520.8 1148Q519.1 1145.9 515.9 1145.9Q511.2 1145.9 507.9 1150.8Q504.5 1155.8 504.5 1162.4Q504.5 1166.1 506.2 1168.2Q507.9 1170.2 511.1 1170.2ZM555.6 1161 559.2 1142.1H564.5L558.3 1174H553.1L553.8 1170.2Q549.7 1174.7 544.1 1174.7Q539.5 1174.7 537.1 1172.4Q534.7 1170.2 534.7 1165.9Q534.7 1164.2 535.1 1162.3L539 1142.1H544.2L540.3 1162.4Q540 1163.9 540 1164.9Q540 1170.2 545.6 1170.2Q549.2 1170.2 552 1167.4Q554.9 1164.6 555.6 1161ZM569.3 1164.8 572.9 1146.3H568.4L569.2 1142.1H573.6L575.1 1134.8H580.4L578.9 1142.1H585.9L585.2 1146.3H578.1L574.6 1164.6Q574.3 1166.1 574.3 1167Q574.3 1168.8 575.3 1169.7Q576.3 1170.5 578.7 1170.5H580.3L579.6 1174.2Q578.5 1174.7 576 1174.7Q572.4 1174.7 570.6 1173.2Q568.8 1171.7 568.8 1168.4Q568.8 1167.2 569.3 1164.8ZM598.1 1174.7Q592.4 1174.7 589.1 1171.4Q585.8 1168.1 585.8 1162.1Q585.8 1153.6 590.8 1147.5Q595.8 1141.4 603.6 1141.4Q609.3 1141.4 612.5 1144.7Q615.8 1148 615.9 1154Q615.8 1162.5 610.8 1168.6Q605.9 1174.7 598.1 1174.7ZM598.7 1170.2Q603.8 1170.2 607.1 1165.3Q610.4 1160.4 610.4 1154.1Q610.4 1150.1 608.5 1148Q606.6 1145.9 603 1145.9Q597.9 1145.9 594.6 1150.8Q591.3 1155.6 591.3 1161.9Q591.3 1170.2 598.7 1170.2ZM627.8 1151Q627.8 1152.9 629.6 1153.9Q631.5 1155 634.1 1155.5Q636.8 1156 639.4 1156.7Q642 1157.4 643.8 1159.2Q645.6 1161.1 645.6 1164.2Q645.6 1168.4 641.8 1171.6Q638 1174.7 631.6 1174.7Q625.6 1174.7 622.3 1171.6Q618.9 1168.5 618.9 1163.6H624.2Q624.2 1166.5 626.1 1168.5Q627.9 1170.5 631.8 1170.5Q635.8 1170.5 638 1168.9Q640.2 1167.3 640.2 1164.9Q640.2 1162.9 638.4 1161.8Q636.6 1160.7 634 1160.2Q631.4 1159.7 628.8 1159.1Q626.3 1158.4 624.4 1156.5Q622.6 1154.6 622.6 1151.4Q622.6 1147.2 626.2 1144.3Q629.7 1141.4 635.5 1141.4Q640.8 1141.4 644 1144.2Q647.1 1147.1 647.1 1152.5H641.8Q641.8 1145.7 634.9 1145.7Q631.7 1145.7 629.7 1147.2Q627.8 1148.7 627.8 1151Z"/></g></g>
<rect x="64" y="478" width="1472" height="2" fill="#0b0b0b"/>
<g fill="#6d6d6d"><path d="M67.6 508.6V517.9Q67.6 519 67.7 519.9Q67.7 520.7 68 521.4Q68.3 522 68.9 522.3Q69.5 522.7 70.6 522.7Q71.7 522.7 72.3 522.3Q72.9 522 73.2 521.4Q73.5 520.7 73.5 519.9Q73.6 519 73.6 517.9V508.6H75.4V517.4Q75.4 519.1 75.3 520.4Q75.1 521.7 74.6 522.5Q74.1 523.4 73.1 523.8Q72.2 524.3 70.6 524.3Q69 524.3 68.1 523.8Q67.1 523.4 66.6 522.5Q66.1 521.7 65.9 520.4Q65.8 519.1 65.8 517.4V508.6ZM89.8 524H87.8L85.9 520.9L83.9 517.6H83.8L81.7 520.9L79.8 524H77.8L82.8 516.2L78.1 508.6H80.1L81.9 511.6L83.8 514.7H83.9L85.8 511.6L87.7 508.6H89.7L84.9 516.1ZM92.4 527 100 507.3H101.6L94 527ZM107.2 508.6V517.9Q107.2 519 107.3 519.9Q107.3 520.7 107.6 521.4Q107.9 522 108.5 522.3Q109.1 522.7 110.2 522.7Q111.3 522.7 111.9 522.3Q112.5 522 112.8 521.4Q113.1 520.7 113.1 519.9Q113.2 519 113.2 517.9V508.6H115V517.4Q115 519.1 114.9 520.4Q114.7 521.7 114.2 522.5Q113.7 523.4 112.7 523.8Q111.8 524.3 110.2 524.3Q108.6 524.3 107.7 523.8Q106.7 523.4 106.2 522.5Q105.7 521.7 105.5 520.4Q105.4 519.1 105.4 517.4V508.6ZM118.6 524V522.5H122.5V510.1H118.6V508.6H128.2V510.1H124.3V522.5H128.2V524ZM149.8 518.8Q148.9 518.8 148.5 518.5Q148.2 518.1 148.2 517.5V517.1Q148.2 516.5 148.5 516.2Q148.9 515.8 149.8 515.8Q150.7 515.8 151.1 516.2Q151.4 516.5 151.4 517.1V517.5Q151.4 518.1 151.1 518.5Q150.7 518.8 149.8 518.8ZM171.6 524 170.4 508.6H172L172.7 517.4L173 522.1H173.2L175.2 512.6H177.3L179.3 522.1H179.5L179.8 517.4L180.4 508.6H182L180.8 524H178.2L176.3 514.8H176.1L174.2 524ZM184.8 524V508.6H194.2V510.2H186.6V515.4H194V517H186.6V522.4H194.2V524ZM197.9 508.6H203.2Q205.1 508.6 206.3 509.7Q207.4 510.8 207.4 512.6Q207.4 514 206.7 514.8Q206 515.6 205 515.9V516Q206.3 516.3 207.1 517.1Q207.9 518 207.9 519.6Q207.9 520.5 207.6 521.3Q207.3 522.1 206.8 522.7Q206.2 523.3 205.4 523.7Q204.7 524 203.8 524H197.9ZM203.3 522.4Q204.5 522.4 205.3 521.8Q206 521.2 206 520.1V519.2Q206 518 205.3 517.4Q204.5 516.8 203.3 516.8H199.8V522.4ZM203 515.3Q204.1 515.3 204.8 514.8Q205.4 514.3 205.4 513.2V512.4Q205.4 511.3 204.8 510.8Q204.1 510.2 203 510.2H199.8V515.3ZM219.8 524 218.5 519.6H213.1L211.8 524H209.9L214.6 508.6H217L221.7 524ZM215.9 510.6H215.7L213.5 518H218ZM224.4 524V508.6H230Q232.1 508.6 233.2 509.8Q234.3 511 234.3 513.1Q234.3 515.2 233.2 516.3Q232.1 517.5 230 517.5H226.2V524ZM226.2 515.9H229.9Q231.1 515.9 231.7 515.3Q232.4 514.7 232.4 513.6V512.5Q232.4 511.4 231.7 510.8Q231.1 510.2 229.9 510.2H226.2ZM237.6 524V508.6H243.2Q245.3 508.6 246.4 509.8Q247.5 511 247.5 513.1Q247.5 515.2 246.4 516.3Q245.3 517.5 243.2 517.5H239.4V524ZM239.4 515.9H243.1Q244.3 515.9 244.9 515.3Q245.6 514.7 245.6 513.6V512.5Q245.6 511.4 244.9 510.8Q244.3 510.2 243.1 510.2H239.4ZM255.4 524.3Q253.3 524.3 252 523.5Q250.6 522.7 249.8 521.6L251.1 520.5Q252 521.6 253 522.1Q254 522.7 255.4 522.7Q257.1 522.7 258 521.9Q258.9 521.1 258.9 519.8Q258.9 518.6 258.2 518Q257.6 517.4 256 517.1L254.3 516.8Q253.2 516.6 252.4 516.2Q251.6 515.8 251.2 515.3Q250.7 514.7 250.5 514Q250.3 513.4 250.3 512.6Q250.3 510.5 251.7 509.5Q253.1 508.4 255.4 508.4Q257.3 508.4 258.6 509Q259.8 509.6 260.6 510.7L259.3 511.9Q258.7 511 257.8 510.5Q256.9 510 255.4 510Q253.9 510 253 510.6Q252.2 511.3 252.2 512.6Q252.2 513.6 252.8 514.3Q253.4 514.9 255.1 515.2L256.7 515.5Q257.8 515.7 258.6 516.1Q259.4 516.5 259.9 517Q260.3 517.6 260.5 518.3Q260.7 519 260.7 519.7Q260.7 521.8 259.3 523.1Q257.9 524.3 255.4 524.3ZM281.8 518.8Q280.9 518.8 280.5 518.5Q280.2 518.1 280.2 517.5V517.1Q280.2 516.5 280.5 516.2Q280.9 515.8 281.8 515.8Q282.7 515.8 283.1 516.2Q283.4 516.5 283.4 517.1V517.5Q283.4 518.1 283.1 518.5Q282.7 518.8 281.8 518.8ZM303.7 508.6H308Q310.8 508.6 312.2 510.6Q313.6 512.5 313.6 516.3Q313.6 520.1 312.2 522.1Q310.8 524 308 524H303.7ZM307.9 522.4Q309.7 522.4 310.7 521.1Q311.6 519.8 311.6 517.5V515.1Q311.6 512.8 310.7 511.5Q309.7 510.2 307.9 510.2H305.5V522.4ZM316.8 524V508.6H326.2V510.2H318.6V515.4H326V517H318.6V522.4H326.2V524ZM334.6 524.3Q332.5 524.3 331.2 523.5Q329.8 522.7 329 521.6L330.3 520.5Q331.2 521.6 332.2 522.1Q333.2 522.7 334.6 522.7Q336.3 522.7 337.2 521.9Q338.1 521.1 338.1 519.8Q338.1 518.6 337.4 518Q336.8 517.4 335.2 517.1L333.5 516.8Q332.4 516.6 331.6 516.2Q330.8 515.8 330.4 515.3Q329.9 514.7 329.7 514Q329.5 513.4 329.5 512.6Q329.5 510.5 330.9 509.5Q332.3 508.4 334.6 508.4Q336.5 508.4 337.8 509Q339 509.6 339.8 510.7L338.5 511.9Q337.9 511 337 510.5Q336.1 510 334.6 510Q333.1 510 332.2 510.6Q331.4 511.3 331.4 512.6Q331.4 513.6 332 514.3Q332.6 514.9 334.3 515.2L335.9 515.5Q337 515.7 337.8 516.1Q338.6 516.5 339.1 517Q339.5 517.6 339.7 518.3Q339.9 519 339.9 519.7Q339.9 521.8 338.5 523.1Q337.1 524.3 334.6 524.3ZM343 524V522.5H346.9V510.1H343V508.6H352.6V510.1H348.7V522.5H352.6V524ZM364.2 522H364.1Q363.9 522.4 363.6 522.8Q363.3 523.2 362.9 523.5Q362.5 523.9 361.9 524.1Q361.4 524.3 360.6 524.3Q358.1 524.3 356.9 522.2Q355.6 520.2 355.6 516.4Q355.6 512.5 357 510.4Q358.3 508.4 361.1 508.4Q362.2 508.4 363 508.7Q363.8 509 364.3 509.4Q364.9 509.9 365.3 510.5Q365.6 511.1 365.9 511.7L364.3 512.5Q364.1 512 363.8 511.5Q363.6 511.1 363.2 510.7Q362.9 510.4 362.4 510.2Q361.9 510 361.2 510Q359.3 510 358.5 511.4Q357.6 512.8 357.6 515.1V517.4Q357.6 518.6 357.8 519.6Q357.9 520.5 358.3 521.2Q358.8 521.9 359.4 522.3Q360.1 522.7 361 522.7Q362.5 522.7 363.3 521.8Q364.2 520.9 364.2 519.5V517.9H360.9V516.4H365.9V524H364.2ZM371.2 511.1H371V524H369.4V508.6H372L377.2 521.6H377.4V508.6H379V524H376.4ZM400.6 524.3Q398.5 524.3 397.2 523.5Q395.8 522.7 395 521.6L396.3 520.5Q397.2 521.6 398.2 522.1Q399.2 522.7 400.6 522.7Q402.3 522.7 403.2 521.9Q404.1 521.1 404.1 519.8Q404.1 518.6 403.4 518Q402.8 517.4 401.2 517.1L399.5 516.8Q398.4 516.6 397.6 516.2Q396.8 515.8 396.4 515.3Q395.9 514.7 395.7 514Q395.5 513.4 395.5 512.6Q395.5 510.5 396.9 509.5Q398.3 508.4 400.6 508.4Q402.5 508.4 403.8 509Q405 509.6 405.8 510.7L404.5 511.9Q403.9 511 403 510.5Q402.1 510 400.6 510Q399.1 510 398.2 510.6Q397.4 511.3 397.4 512.6Q397.4 513.6 398 514.3Q398.6 514.9 400.3 515.2L401.9 515.5Q403 515.7 403.8 516.1Q404.6 516.5 405.1 517Q405.5 517.6 405.7 518.3Q405.9 519 405.9 519.7Q405.9 521.8 404.5 523.1Q403.1 524.3 400.6 524.3ZM412.9 524V518L407.6 508.6H409.7L411.9 512.6L413.8 516.1H413.8L415.8 512.6L418 508.6H420L414.7 518V524ZM427 524.3Q424.9 524.3 423.6 523.5Q422.2 522.7 421.4 521.6L422.7 520.5Q423.6 521.6 424.6 522.1Q425.6 522.7 427 522.7Q428.7 522.7 429.6 521.9Q430.5 521.1 430.5 519.8Q430.5 518.6 429.8 518Q429.2 517.4 427.6 517.1L425.9 516.8Q424.8 516.6 424 516.2Q423.2 515.8 422.8 515.3Q422.3 514.7 422.1 514Q421.9 513.4 421.9 512.6Q421.9 510.5 423.3 509.5Q424.7 508.4 427 508.4Q428.9 508.4 430.2 509Q431.4 509.6 432.2 510.7L430.9 511.9Q430.3 511 429.4 510.5Q428.5 510 427 510Q425.5 510 424.6 510.6Q423.8 511.3 423.8 512.6Q423.8 513.6 424.4 514.3Q425 514.9 426.7 515.2L428.3 515.5Q429.4 515.7 430.2 516.1Q431 516.5 431.5 517Q431.9 517.6 432.1 518.3Q432.3 519 432.3 519.7Q432.3 521.8 430.9 523.1Q429.5 524.3 427 524.3ZM441.1 510.2V524H439.3V510.2H434.1V508.6H446.2V510.2ZM448.8 524V508.6H458.2V510.2H450.6V515.4H458V517H450.6V522.4H458.2V524ZM470 516.3V511.4H469.8L466.6 519.3L463.4 511.4H463.2V516.3V524H461.5V508.6H463.9L466.6 515.4H466.7L469.4 508.6H471.7V524H470ZM479.8 524.3Q477.7 524.3 476.4 523.5Q475 522.7 474.2 521.6L475.5 520.5Q476.4 521.6 477.4 522.1Q478.4 522.7 479.8 522.7Q481.5 522.7 482.4 521.9Q483.3 521.1 483.3 519.8Q483.3 518.6 482.6 518Q482 517.4 480.4 517.1L478.7 516.8Q477.6 516.6 476.8 516.2Q476 515.8 475.6 515.3Q475.1 514.7 474.9 514Q474.7 513.4 474.7 512.6Q474.7 510.5 476.1 509.5Q477.5 508.4 479.8 508.4Q481.7 508.4 483 509Q484.2 509.6 485 510.7L483.7 511.9Q483.1 511 482.2 510.5Q481.3 510 479.8 510Q478.3 510 477.4 510.6Q476.6 511.3 476.6 512.6Q476.6 513.6 477.2 514.3Q477.8 514.9 479.5 515.2L481.1 515.5Q482.2 515.7 483 516.1Q483.8 516.5 484.3 517Q484.7 517.6 484.9 518.3Q485.1 519 485.1 519.7Q485.1 521.8 483.7 523.1Q482.3 524.3 479.8 524.3Z"/><path d="M1176.2 522H1176.1Q1175.9 522.4 1175.6 522.8Q1175.3 523.2 1174.9 523.5Q1174.5 523.9 1173.9 524.1Q1173.4 524.3 1172.6 524.3Q1170.1 524.3 1168.9 522.2Q1167.6 520.2 1167.6 516.4Q1167.6 512.5 1169 510.4Q1170.3 508.4 1173.1 508.4Q1174.2 508.4 1175 508.7Q1175.8 509 1176.3 509.4Q1176.9 509.9 1177.3 510.5Q1177.6 511.1 1177.9 511.7L1176.3 512.5Q1176.1 512 1175.8 511.5Q1175.6 511.1 1175.2 510.7Q1174.9 510.4 1174.4 510.2Q1173.9 510 1173.2 510Q1171.3 510 1170.5 511.4Q1169.6 512.8 1169.6 515.1V517.4Q1169.6 518.6 1169.8 519.6Q1169.9 520.5 1170.3 521.2Q1170.8 521.9 1171.4 522.3Q1172.1 522.7 1173 522.7Q1174.5 522.7 1175.3 521.8Q1176.2 520.9 1176.2 519.5V517.9H1172.9V516.4H1177.9V524H1176.2ZM1190.2 524 1188.9 519.6H1183.5L1182.2 524H1180.3L1185 508.6H1187.4L1192.1 524ZM1186.3 510.6H1186.1L1183.9 518H1188.4ZM1196.4 511.1H1196.2V524H1194.6V508.6H1197.2L1202.4 521.6H1202.6V508.6H1204.2V524H1201.6ZM1208 524 1206.8 508.6H1208.4L1209.1 517.4L1209.4 522.1H1209.6L1211.6 512.6H1213.7L1215.7 522.1H1215.9L1216.2 517.4L1216.8 508.6H1218.4L1217.2 524H1214.6L1212.7 514.8H1212.5L1210.6 524ZM1229.8 524 1228.5 519.6H1223.1L1221.8 524H1219.9L1224.6 508.6H1227L1231.7 524ZM1225.9 510.6H1225.7L1223.5 518H1228ZM1235 524V508.6H1236.9V522.4H1244.2V524ZM1251.5 516.5 1249.3 519.1V524H1247.5V508.6H1249.3V516.7H1249.4L1251.4 514.1L1255.9 508.6H1258.2L1252.8 515.1L1258.3 524H1256.2ZM1265.4 524.2Q1264.5 524.2 1264.1 523.8Q1263.8 523.5 1263.8 522.9V522.5Q1263.8 521.9 1264.1 521.5Q1264.5 521.2 1265.4 521.2Q1266.3 521.2 1266.7 521.5Q1267 521.9 1267 522.5V522.9Q1267 523.5 1266.7 523.8Q1266.3 524.2 1265.4 524.2ZM1281.8 522H1281.7Q1281.5 522.4 1281.2 522.8Q1280.9 523.2 1280.5 523.5Q1280.1 523.9 1279.5 524.1Q1279 524.3 1278.2 524.3Q1275.7 524.3 1274.5 522.2Q1273.2 520.2 1273.2 516.4Q1273.2 512.5 1274.6 510.4Q1275.9 508.4 1278.7 508.4Q1279.8 508.4 1280.6 508.7Q1281.4 509 1281.9 509.4Q1282.5 509.9 1282.9 510.5Q1283.2 511.1 1283.5 511.7L1281.9 512.5Q1281.7 512 1281.4 511.5Q1281.2 511.1 1280.8 510.7Q1280.5 510.4 1280 510.2Q1279.5 510 1278.8 510Q1276.9 510 1276.1 511.4Q1275.2 512.8 1275.2 515.1V517.4Q1275.2 518.6 1275.4 519.6Q1275.5 520.5 1275.9 521.2Q1276.4 521.9 1277 522.3Q1277.7 522.7 1278.6 522.7Q1280.1 522.7 1280.9 521.8Q1281.8 520.9 1281.8 519.5V517.9H1278.5V516.4H1283.5V524H1281.8ZM1287 524V522.5H1290.9V510.1H1287V508.6H1296.6V510.1H1292.7V522.5H1296.6V524ZM1305.9 510.2V524H1304.1V510.2H1299V508.6H1311.1V510.2ZM1321.2 517H1315.2V524H1313.4V508.6H1315.2V515.4H1321.2V508.6H1323V524H1321.2ZM1328.4 508.6V517.9Q1328.4 519 1328.5 519.9Q1328.5 520.7 1328.8 521.4Q1329.1 522 1329.7 522.3Q1330.3 522.7 1331.4 522.7Q1332.5 522.7 1333.1 522.3Q1333.7 522 1334 521.4Q1334.3 520.7 1334.3 519.9Q1334.4 519 1334.4 517.9V508.6H1336.2V517.4Q1336.2 519.1 1336.1 520.4Q1335.9 521.7 1335.4 522.5Q1334.9 523.4 1333.9 523.8Q1333 524.3 1331.4 524.3Q1329.8 524.3 1328.9 523.8Q1327.9 523.4 1327.4 522.5Q1326.9 521.7 1326.7 520.4Q1326.6 519.1 1326.6 517.4V508.6ZM1339.9 508.6H1345.2Q1347.1 508.6 1348.3 509.7Q1349.4 510.8 1349.4 512.6Q1349.4 514 1348.7 514.8Q1348 515.6 1347 515.9V516Q1348.3 516.3 1349.1 517.1Q1349.9 518 1349.9 519.6Q1349.9 520.5 1349.6 521.3Q1349.3 522.1 1348.8 522.7Q1348.2 523.3 1347.4 523.7Q1346.7 524 1345.8 524H1339.9ZM1345.3 522.4Q1346.5 522.4 1347.3 521.8Q1348 521.2 1348 520.1V519.2Q1348 518 1347.3 517.4Q1346.5 516.8 1345.3 516.8H1341.8V522.4ZM1345 515.3Q1346.1 515.3 1346.8 514.8Q1347.4 514.3 1347.4 513.2V512.4Q1347.4 511.3 1346.8 510.8Q1346.1 510.2 1345 510.2H1341.8V515.3ZM1357.8 524.2Q1356.9 524.2 1356.5 523.8Q1356.2 523.5 1356.2 522.9V522.5Q1356.2 521.9 1356.5 521.5Q1356.9 521.2 1357.8 521.2Q1358.7 521.2 1359.1 521.5Q1359.4 521.9 1359.4 522.5V522.9Q1359.4 523.5 1359.1 523.8Q1358.7 524.2 1357.8 524.2ZM1366.2 524V522.5H1370.1V510.1H1366.2V508.6H1375.8V510.1H1371.9V522.5H1375.8V524ZM1384.2 524.3Q1382.8 524.3 1381.8 523.7Q1380.8 523.2 1380.1 522.2Q1379.4 521.2 1379.1 519.7Q1378.8 518.2 1378.8 516.3Q1378.8 514.5 1379.1 513Q1379.4 511.5 1380.1 510.5Q1380.8 509.5 1381.8 508.9Q1382.8 508.4 1384.2 508.4Q1385.6 508.4 1386.6 508.9Q1387.6 509.5 1388.3 510.5Q1389 511.5 1389.3 513Q1389.6 514.5 1389.6 516.3Q1389.6 518.2 1389.3 519.7Q1389 521.2 1388.3 522.2Q1387.6 523.2 1386.6 523.7Q1385.6 524.3 1384.2 524.3ZM1384.2 522.7Q1385.1 522.7 1385.8 522.3Q1386.4 521.9 1386.8 521.3Q1387.2 520.6 1387.4 519.7Q1387.6 518.7 1387.6 517.6V515.1Q1387.6 513.9 1387.4 513Q1387.2 512 1386.8 511.4Q1386.4 510.7 1385.8 510.3Q1385.1 510 1384.2 510Q1383.3 510 1382.6 510.3Q1382 510.7 1381.6 511.4Q1381.2 512 1381 513Q1380.8 513.9 1380.8 515.1V517.6Q1380.8 518.7 1381 519.7Q1381.2 520.6 1381.6 521.3Q1382 521.9 1382.6 522.3Q1383.3 522.7 1384.2 522.7ZM1392.8 527 1400.4 507.3H1402L1394.4 527ZM1406 524V508.6H1411.6Q1413.7 508.6 1414.8 509.8Q1415.9 511 1415.9 513.1Q1415.9 515.2 1414.8 516.3Q1413.7 517.5 1411.6 517.5H1407.8V524ZM1407.8 515.9H1411.5Q1412.7 515.9 1413.3 515.3Q1414 514.7 1414 513.6V512.5Q1414 511.4 1413.3 510.8Q1412.7 510.2 1411.5 510.2H1407.8ZM1423.8 524.3Q1422.4 524.3 1421.4 523.7Q1420.4 523.2 1419.7 522.2Q1419 521.2 1418.7 519.7Q1418.4 518.2 1418.4 516.3Q1418.4 514.5 1418.7 513Q1419 511.5 1419.7 510.5Q1420.4 509.5 1421.4 508.9Q1422.4 508.4 1423.8 508.4Q1425.2 508.4 1426.2 508.9Q1427.2 509.5 1427.9 510.5Q1428.6 511.5 1428.9 513Q1429.2 514.5 1429.2 516.3Q1429.2 518.2 1428.9 519.7Q1428.6 521.2 1427.9 522.2Q1427.2 523.2 1426.2 523.7Q1425.2 524.3 1423.8 524.3ZM1423.8 522.7Q1424.7 522.7 1425.4 522.3Q1426 521.9 1426.4 521.3Q1426.8 520.6 1427 519.7Q1427.2 518.7 1427.2 517.6V515.1Q1427.2 513.9 1427 513Q1426.8 512 1426.4 511.4Q1426 510.7 1425.4 510.3Q1424.7 510 1423.8 510Q1422.9 510 1422.2 510.3Q1421.6 510.7 1421.2 511.4Q1420.8 512 1420.6 513Q1420.4 513.9 1420.4 515.1V517.6Q1420.4 518.7 1420.6 519.7Q1420.8 520.6 1421.2 521.3Q1421.6 521.9 1422.2 522.3Q1422.9 522.7 1423.8 522.7ZM1434.2 524H1432.4V508.6H1438Q1440.1 508.6 1441.2 509.8Q1442.3 511 1442.3 513.1Q1442.3 514.9 1441.4 516.1Q1440.4 517.2 1438.6 517.4L1442.5 524H1440.4L1436.7 517.4H1434.2ZM1437.9 515.9Q1439.1 515.9 1439.7 515.3Q1440.4 514.7 1440.4 513.6V512.5Q1440.4 511.4 1439.7 510.8Q1439.1 510.2 1437.9 510.2H1434.2V515.9ZM1451.1 510.2V524H1449.3V510.2H1444.2V508.6H1456.3V510.2ZM1458.6 524V522.5H1462.5V510.1H1458.6V508.6H1468.2V510.1H1464.3V522.5H1468.2V524ZM1472 524V508.6H1481.7V510.2H1473.8V515.4H1481V517H1473.8V524ZM1489.8 524.3Q1488.4 524.3 1487.4 523.7Q1486.4 523.2 1485.7 522.2Q1485 521.2 1484.7 519.7Q1484.4 518.2 1484.4 516.3Q1484.4 514.5 1484.7 513Q1485 511.5 1485.7 510.5Q1486.4 509.5 1487.4 508.9Q1488.4 508.4 1489.8 508.4Q1491.2 508.4 1492.2 508.9Q1493.2 509.5 1493.9 510.5Q1494.6 511.5 1494.9 513Q1495.2 514.5 1495.2 516.3Q1495.2 518.2 1494.9 519.7Q1494.6 521.2 1493.9 522.2Q1493.2 523.2 1492.2 523.7Q1491.2 524.3 1489.8 524.3ZM1489.8 522.7Q1490.7 522.7 1491.4 522.3Q1492 521.9 1492.4 521.3Q1492.8 520.6 1493 519.7Q1493.2 518.7 1493.2 517.6V515.1Q1493.2 513.9 1493 513Q1492.8 512 1492.4 511.4Q1492 510.7 1491.4 510.3Q1490.7 510 1489.8 510Q1488.9 510 1488.2 510.3Q1487.6 510.7 1487.2 511.4Q1486.8 512 1486.6 513Q1486.4 513.9 1486.4 515.1V517.6Q1486.4 518.7 1486.6 519.7Q1486.8 520.6 1487.2 521.3Q1487.6 521.9 1488.2 522.3Q1488.9 522.7 1489.8 522.7ZM1499 524V508.6H1500.9V522.4H1508.2V524ZM1511.4 524V522.5H1515.3V510.1H1511.4V508.6H1521V510.1H1517.1V522.5H1521V524ZM1529.4 524.3Q1528 524.3 1527 523.7Q1526 523.2 1525.3 522.2Q1524.6 521.2 1524.3 519.7Q1524 518.2 1524 516.3Q1524 514.5 1524.3 513Q1524.6 511.5 1525.3 510.5Q1526 509.5 1527 508.9Q1528 508.4 1529.4 508.4Q1530.8 508.4 1531.8 508.9Q1532.8 509.5 1533.5 510.5Q1534.2 511.5 1534.5 513Q1534.8 514.5 1534.8 516.3Q1534.8 518.2 1534.5 519.7Q1534.2 521.2 1533.5 522.2Q1532.8 523.2 1531.8 523.7Q1530.8 524.3 1529.4 524.3ZM1529.4 522.7Q1530.3 522.7 1531 522.3Q1531.6 521.9 1532 521.3Q1532.4 520.6 1532.6 519.7Q1532.8 518.7 1532.8 517.6V515.1Q1532.8 513.9 1532.6 513Q1532.4 512 1532 511.4Q1531.6 510.7 1531 510.3Q1530.3 510 1529.4 510Q1528.5 510 1527.8 510.3Q1527.2 510.7 1526.8 511.4Q1526.4 512 1526.2 513Q1526 513.9 1526 515.1V517.6Q1526 518.7 1526.2 519.7Q1526.4 520.6 1526.8 521.3Q1527.2 521.9 1527.8 522.3Q1528.5 522.7 1529.4 522.7Z"/></g>
</svg>
